<?xml version="1.0" encoding="utf-8"?>
<!-- Generator: Adobe Illustrator 23.0.4, SVG Export Plug-In . SVG Version: 6.00 Build 0)  -->
<svg version="1.1" id="Capa_1" xmlns="http://www.w3.org/2000/svg" xmlns:xlink="http://www.w3.org/1999/xlink" x="0px" y="0px"
	 viewBox="0 0 490.3 490.3" style="enable-background:new 0 0 490.3 490.3;" xml:space="preserve">
<style type="text/css">
	.st0{fill:#FFFFFF;}
</style>
<g>
	<g>
		<path class="st0" d="M0,121v248.2c0,34.2,27.9,62.1,62.1,62.1h200.6c34.2,0,62.1-27.9,62.1-62.1V329c0-6.8-5.5-12.3-12.3-12.3
			s-12.3,5.5-12.3,12.3v40.2c0,20.7-16.9,37.6-37.6,37.6H62.1c-20.7,0-37.6-16.9-37.6-37.6V121c0-20.7,16.9-37.6,37.6-37.6h200.6
			c20.7,0,37.6,16.9,37.6,37.6v40.2c0,6.8,5.5,12.3,12.3,12.3s12.3-5.5,12.3-12.3V121c0-34.2-27.9-62.1-62.1-62.1H62.1
			C27.9,58.9,0,86.7,0,121z"/>
		<path class="st0" d="M385.4,337.6c2.4,2.4,5.5,3.6,8.7,3.6s6.3-1.2,8.7-3.6l83.9-83.9c4.8-4.8,4.8-12.5,0-17.3l-83.9-83.9
			c-4.8-4.8-12.5-4.8-17.3,0s-4.8,12.5,0,17.3l63,63H218.6c-6.8,0-12.3,5.5-12.3,12.3s5.5,12.3,12.3,12.3h229.8l-63,63
			C380.6,325.1,380.6,333,385.4,337.6z"/>
	</g>
</g>
</svg>
