<svg xmlns="http://www.w3.org/2000/svg" viewBox="0 0 373.52 184.62"><defs><style>.cls-1{fill:#fff;}</style></defs><title>mappemonde_1</title><g id="Calque_2" data-name="Calque 2"><g id="Calque_1-2" data-name="Calque 1"><path class="cls-1" d="M372.59,37.48l-.44-.35a5,5,0,0,0-3.08-1.49,3.14,3.14,0,0,0-1.38.33c-2.3-3.16-9-5.66-15.57-5.66l-1.63,0,0,.18-.2-.06a1.9,1.9,0,0,0-.62-.12h-.15l-2.3.26c-1.68.2-3.42.4-5.09.55a.87.87,0,0,1-.34-.12,3.89,3.89,0,0,0-4.12-2.73c-.32,0-.66,0-1,0s-.62,0-.94,0h-.15c-1.36,0-3.4-.07-4.13-.79-1.87-1.83-3.6-2.14-5.42-1a3.75,3.75,0,0,0-3.28-1.69,9.22,9.22,0,0,0-4,1.13l-.78.39.3.9h-6.76l-1.11,1.42,0-.12a16.45,16.45,0,0,0-.8-2.36c-.44-1-1-2.22-2.05-2.53a15.22,15.22,0,0,0-3.69-.7,2.11,2.11,0,0,0-1.73.68c-.58.8-1,.9-1.35.9a4.62,4.62,0,0,1-1.46-.39,7.14,7.14,0,0,0-1.67-.48c-.82-.1-1.63-.27-2.48-.45a21.6,21.6,0,0,0-4.35-.58,12.69,12.69,0,0,0,1.59-1.51c.24-.26.47-.51.72-.74l.9-.88L293,18.88c-.32-.2-.63-.41-.94-.62a20.24,20.24,0,0,0-2.52-1.51,3.07,3.07,0,0,0-1.63-.15,2.08,2.08,0,0,1-.61,0l-.74-.1a4.31,4.31,0,0,1-1.83-.48,7.68,7.68,0,0,0-1.6-1l3.22-.59L284.49,13c-1.83-1.35-3-2.09-4.15-2.09h0a2.23,2.23,0,0,0-1.34.43l.54-1.9-1.8.24-.11-.19a7,7,0,0,0-1.43-1.9,4.75,4.75,0,0,0-2.63-1.09,1.66,1.66,0,0,0-.87.23,9.59,9.59,0,0,0-2.24,2.13c-.29.33-.58.67-.91,1l-1,1.1,8.68,3.27c0,.09-.07.19-.11.28l-.63,1.66,2.77-.51c-.21.19-.39.38-.55.55a3,3,0,0,1-1.29.93c-1.31.36-2.63.68-3.95,1-2,.49-4.11,1-6.14,1.64a4.58,4.58,0,0,0-2.09,1.82,9.64,9.64,0,0,1-.61.76l-.37.39c-1,.08-2.06.16-3.1.32-.54.09-2.12.58-2.31,1.7a1.83,1.83,0,0,0,.09.9,6.19,6.19,0,0,0-1.37-.18h-.19a2.4,2.4,0,0,0-1.47.65l-.45-.51,0-.31-.16.11-2-2.23.26,3.4-1.15.77a3.75,3.75,0,0,0-2.71-3.87l-.64-.2-.43.5c-.36.43-.76.84-1.15,1.25a14.38,14.38,0,0,0-2.62,3.32,3.38,3.38,0,0,0,.23,3.45,22.26,22.26,0,0,0-2.42-1,29.23,29.23,0,0,0-3.77-.88c-.59-.11-1.2-.22-1.85-.36l-1.52-.32c-1.35-2.28-1.25-2.4.6-4.57,2.09-2.44,5-3.47,7.85-4.32.91-.28,1.82-.59,2.72-.9l1.21-.42,1-.33-.93-2.42-.73,0c-6.58.41-14.64,2.07-18.53,11.32l-.4.93,9,3.68,0-.08.39.33a3.87,3.87,0,0,0-1.59-.35,7.12,7.12,0,0,0-2.74.73l-.61.24-.45-2.12-1.19.69c-.64.37-1.27.73-1.88,1.1-1.59.93-3.08,1.81-4.63,2.57,0,0,0,0-.13,0l2.33-1.82-6-1.27-.16,1c0,.31-.1.58-.15.82a6.3,6.3,0,0,0-.17,1.65,2.61,2.61,0,0,0,.1.57H220l-.85-.89c-.2-.21-.38-.44-.57-.68a5.54,5.54,0,0,0-1.83-1.66l-.94-.46a22.88,22.88,0,0,0-6.51-2.39,1.5,1.5,0,0,1-1-.75,2.07,2.07,0,0,0-1.26-.93,21.06,21.06,0,0,0-6.38-.08,5.73,5.73,0,0,0-2.09.83,3.45,3.45,0,0,1-1.26.53h0a3.83,3.83,0,0,0-.81-.08,4.56,4.56,0,0,0-3.33,1.77c-.66.67-1.1,1.08-1.67,1.12l0,1-.08.09a14.65,14.65,0,0,0-1.33,1.66A21.72,21.72,0,0,1,183,42.8c-2.43,1.41-3.07,3.62-1.91,6.56.24.62,1,2.48,2.77,2.48a2.52,2.52,0,0,0,.6-.07,2.65,2.65,0,0,0-.54.67,3.83,3.83,0,0,0,.26,3.26l.18.45c-.33.16-.65.3-1,.43a14.1,14.1,0,0,0-3.16,1.72,15.59,15.59,0,0,0-1.5,1.42,2.93,2.93,0,0,0,.05-.29l.08-.43-.27-.35-1-1.23c-.66-.83-1.28-1.62-1.83-2.42-.17-.25-.39-.5-.6-.75-.77-.88-.95-1.09-.2-1.89L176.31,51l-1.82-.32a7.82,7.82,0,0,0-.89-.1l-.52-.06-.12-.11c-.64-.62-1-1-1.65-1s-1.1.53-1.55,1.14l-.23.31a3.27,3.27,0,0,0-.41,3.53l-.56.25a7.5,7.5,0,0,1-1.43.54c-2.27.47-2,2.3-1.92,3.18.06.5.1.87,0,1l-3.62,3,4.54-1.33a6.38,6.38,0,0,1,1.19-.14,3.72,3.72,0,0,0,2.87-1,.83.83,0,0,0,.11-.15.28.28,0,0,1,0,.09,12.54,12.54,0,0,0,.25,1.69c.05.24.09.5.14.77L171,64l-.12.06-1.74.91,1.76.87c1.56.77,2.87,1.48,3.18,2.47a2.31,2.31,0,0,1-.18,1.63h-2.68c-1.07,0-1.94,0-2.73.07s-2.42.73-2.49,1.88c-.11,1.77-.1,3.55-.09,5.26,0,.55,0,1.11,0,1.65v.83l.82.15c.41.08.77.13,1.1.18a4.61,4.61,0,0,1,1.22.26l.43.17-.64.53a18.81,18.81,0,0,0-2.12,1.92,8.5,8.5,0,0,0-1.23,1.93c-.12.25-.25.5-.39.74s-.37.71-.54,1.08a5,5,0,0,1-1,1.64c-3.06,2.71-6.86,6.08-5.15,11.86a2.22,2.22,0,0,1-.13.67,4.44,4.44,0,0,0-.22,1.14q0,.52-.09,1.08a5.82,5.82,0,0,0,.34,3.51,29.26,29.26,0,0,0,4.9,6.19c1.31,1.28,3.26,2.81,5.19,2.81a29.17,29.17,0,0,0,5.55-.72c1.13-.23,2.3-.46,3.43-.59a15,15,0,0,1,4.13.33,3,3,0,0,1,.82.39,3.92,3.92,0,0,0,1.68.65c1.19.11,1.48.42,1.53.51a1.19,1.19,0,0,1-.08.94c-1.14,3.11.05,5.16,1.73,7.52,2.35,3.3,2.76,6,1.33,8.59a7.58,7.58,0,0,0-.85,5.31c1.1,3.49,2.44,6.95,3.73,10.3q.75,1.92,1.47,3.84a14.13,14.13,0,0,1,.41,1.4c.35,1.37.71,2.78,1.83,3.38a3.5,3.5,0,0,0,1.68.37,11.73,11.73,0,0,0,2.18-.28,14.54,14.54,0,0,1,1.57-.23c3.79-.25,9.38-5.56,9.81-9.32a1.92,1.92,0,0,1,.44-.93,3.46,3.46,0,0,0,2.14-4.06c-.33-2.8-.11-3.19,2.57-4.7.27-.15,2.69-1.55,2.83-3.36a15.43,15.43,0,0,0-.9-5.68c-.79-2.54-1-4.59.45-6.32A37.86,37.86,0,0,1,223,118a18.31,18.31,0,0,0,6.48-10.85l.34-1.53-1.53.34c-.67.14-1.3.29-1.91.43-1.53.35-2.86.65-4.3.87a1.72,1.72,0,0,1-.6-.13c0-.13.09-.28.13-.39l0-.09c6.32-1.64,12.74-3.85,16.74-10.22l.56-.88L234.36,93h0l-.31-.56h0a16.33,16.33,0,0,0,2.87.93,16.85,16.85,0,0,0,5.28.1c1.9-.25,3.25.62,4.38,2.8.52,1,1.36,2.27,2.78,2.27a2.72,2.72,0,0,0,.49-.05l5,14.55,1.09-.76a8.37,8.37,0,0,0,3.88-7.18,3.51,3.51,0,0,1,.17-1.28,24.12,24.12,0,0,0,3.38-3c1.77-1.77,3.45-3.44,5.89-4l3.47,7,1.78-.79.24.88a11.74,11.74,0,0,1,.68,3.93c-.19,2.61.91,4.54,2,6.41l.68,1.24c-.82-.71-1.64-1.41-2.46-2.09a2.3,2.3,0,0,0-1.72-.3,2.72,2.72,0,0,1-.39,0h-3L273,115a15.14,15.14,0,0,1,3.73,4.86c1.53,2.64,3.11,5.37,6.43,6.64l-.3,1.18,11.29,2.28.64-2.9-9.64-2.28.72-2.6-1.58-1.32-1.17-1-.22-1.84c-.25-2.1-.61-4.27-2-5.66-2.41-2.43-2.79-2.81-1.94-5.31l4.71,4.27.66-.48c.18-.13.37-.29.57-.46a4.71,4.71,0,0,1,1.2-.83,4.08,4.08,0,0,0,2.46-2.16,3.94,3.94,0,0,0-.14-3.16,8.53,8.53,0,0,0-1.48-2.13,8.5,8.5,0,0,1-1.09-1.46,2.78,2.78,0,0,1-.23-1.72,4.5,4.5,0,0,1,1.56-1,2.41,2.41,0,0,0,1.41.49,3.17,3.17,0,0,0,1.6-.55,2.75,2.75,0,0,1,.47-.25,10.63,10.63,0,0,0,1.11-.48,7.25,7.25,0,0,1,1.28-.51A10.15,10.15,0,0,0,301.17,85a8.43,8.43,0,0,0-1.32-3l-.3-.51,3.31-2.36,1.12,0a2.06,2.06,0,0,1,.94.14,3.21,3.21,0,0,1-.08.86,3.49,3.49,0,0,0,.33,2.67l.47.67,4.49-2-.09.07-.71.5.93,1.83.42-.1,1.43,1.73.76-.57c.26-.2.51-.41.76-.62a5.3,5.3,0,0,1,1.38-1,4.72,4.72,0,0,1,1.39-.19A8.48,8.48,0,0,0,318,83a5.68,5.68,0,0,0,3.78-3.29,7.27,7.27,0,0,0,0-5.87l7.1-2.3-7.32-3.65-4,7.31,1.59-.52-.42.87a9.74,9.74,0,0,0-.45,1,6.4,6.4,0,0,1-.52,1.16A8,8,0,0,0,315.56,79a4.24,4.24,0,0,1-2.46,1.16,2.45,2.45,0,0,1-.46,0l-.24,0a2.81,2.81,0,0,0-1.78.93l-2.4-4.67a7.82,7.82,0,0,0,1.6-1.86c.83-1.18,1.39-1.91,2.45-1.91h0a3.73,3.73,0,0,1,1,.17l.21.06h.15a2.81,2.81,0,0,0,1.75-1l.08-.07A22.47,22.47,0,0,0,321,64c-.1,3.12.05,3.76,1.91,4.33l2.17.65-1-2c-.59-1.24-.6-1.63-.55-1.76s.19-.27,1-.6l.84-.32-.23-.87c-.09-.33-.18-.67-.28-1-.21-.75-.42-1.51-.59-2.28s-.23-1.25-.33-1.92c0-.3-.09-.6-.14-.89l-.16-1-2.49.36a2.25,2.25,0,0,0-2.37-.63,2.14,2.14,0,0,1-2-.36l.19-.16a27.59,27.59,0,0,0,2.69-2.33c1.83-1.91,3.49-3.17,5.63-3.17a6.55,6.55,0,0,1,1.65.23,3.4,3.4,0,0,0,1.68-.12,3.46,3.46,0,0,1,.6-.13,8.19,8.19,0,0,1,1.86,0c.81.14,1.61.35,2.45.57.36.09.71.19,1.07.27l1.76.44-.73-2.19c.22-.18.43-.37.64-.56a14.1,14.1,0,0,1,2.66-2,6.49,6.49,0,0,1,1.16.45c.35.15.73.32,1.15.48l-.81.59a21.46,21.46,0,0,0-3.67,3.15c-2.62,3-1.62,6.39-.75,9.36.1.31.19.61.27.91l.46,1.6L338,62c.55-.51,1.13-1,1.7-1.5a15,15,0,0,0,3.69-4c.09-.17.24-.37.39-.59.69-1,2.22-3.09.34-5a3.62,3.62,0,0,1,3.16-1.94,23.28,23.28,0,0,0,6.45-1.14,47.6,47.6,0,0,0,5.2-2.26c.79-.38,1.59-.77,2.43-1.15l1.16-.53-1.7-2.16a2.8,2.8,0,0,0,2.21-1.93l5.7,2.77,4.77-4.32Zm-16.53,1.38a3,3,0,0,0,.18,3.46l.05,0A35.67,35.67,0,0,1,352.46,44a18.1,18.1,0,0,1-4,.84,3,3,0,0,0-1-2.35L347,42a3.08,3.08,0,0,0-4-.11l-1.58,1.31a6.22,6.22,0,0,0-2.52-.65,3.66,3.66,0,0,0-1.67.39,16.72,16.72,0,0,0-3.61,2.64l-.81.71-1-.2a12,12,0,0,0-2.88-.06,6.63,6.63,0,0,0-1.34.26h0a9.64,9.64,0,0,0-2.24-.26c-3.78,0-6.42,2.22-8.52,4.39a23.32,23.32,0,0,1-2.32,2l-1.37,1.11a3,3,0,0,0,.73,5,5.69,5.69,0,0,1,.64.37,6.67,6.67,0,0,0,3.47,1.2c-.57,3-2.16,5.6-5.1,8.45l-.64,0h0c-3.18,0-4.77,2.27-5.72,3.62-.12.19-.35.51-.53.74a3,3,0,0,0-2.32-.27,2.82,2.82,0,0,0-.75-.83,3.08,3.08,0,0,0-3.38-.16L295,74.49a3,3,0,0,0-1.34,3.28,5.18,5.18,0,0,0,1.62,2.76,2.91,2.91,0,0,0,.26,2c.28.55.57,1,.86,1.52a6.68,6.68,0,0,1,.79,1.56c.55,3.37-1.54,6.28-5.07,7.1a9.85,9.85,0,0,0-2.1.79c-.27.12-.52.24-.75.32s-.45.19-.64.28a3.32,3.32,0,0,0-1.3-.26,7.48,7.48,0,0,0-5,2.73c-1.35,1.84-.79,4.53-.09,5.89a11,11,0,0,0,1.62,2.25,7.15,7.15,0,0,1,.82,1.08l-.07,0a6.18,6.18,0,0,0-.74.35l-3.4-3.08a3,3,0,0,0-2-.78h0c-.12-.42-.23-.84-.32-1.25a3,3,0,0,0-1.57-2,3.12,3.12,0,0,0-1.92-.28l-2.12-4.29a3,3,0,0,0-3.05-1.65c-4.2.51-6.82,3.12-8.93,5.23a19.38,19.38,0,0,1-2.84,2.51,4.51,4.51,0,0,0-1.8,3.31l-2.67-7.69a3,3,0,0,0-1.9-1.87,3.19,3.19,0,0,0-1.37-.12c-1.92-3.48-4.86-5.12-8.33-4.66a10.27,10.27,0,0,1-6.15-.78,17.21,17.21,0,0,0-3.78-1.14l-.46-.49a10.68,10.68,0,0,0-1.44-1.38,11.85,11.85,0,0,0-2-1.16l-.55-.28a3.06,3.06,0,0,0-3.68.62l-.79.88a3,3,0,0,0-.23,3.71l4.43,6.39a3.06,3.06,0,0,0,3.74,1l1.23-.57.94.53c-2.84,2.9-6.63,4.36-10.43,5.44-.58-1.37-1.17-2.79-1.84-4.18a11.46,11.46,0,0,0-1.47-2.18,9.13,9.13,0,0,1-.66-.88c-.56-.91-1.11-1.86-1.66-2.8-.8-1.36-1.63-2.77-2.52-4.14a3.39,3.39,0,0,0-1.24-1.16,6.92,6.92,0,0,0,1.14-1.7,27.23,27.23,0,0,0,1.23-3.53c.13-.45.27-.93.43-1.41a3,3,0,0,0-.5-2.76,2.93,2.93,0,0,0-1.08-.87l.43.06a21.44,21.44,0,0,0,2.58.22,4.51,4.51,0,0,0,4.15-3.47,4.69,4.69,0,0,0-2-4.33c-.53-.39-1.06-.74-1.64-1.12a3,3,0,0,0-.7-3.37l-.67-.63a3.08,3.08,0,0,0-3.91-.17l-.7.54c-.26.19-.51.39-.77.6l-.35-.59a3,3,0,0,0-5.06-.15c-.41.61-.78,1.13-1.14,1.64a22.82,22.82,0,0,0-2.06,3.25,6.15,6.15,0,0,0-.57,2.16,1,1,0,0,0-.25,0,8.65,8.65,0,0,0-3.52,1.07,25.48,25.48,0,0,0-6.75-6.48,3.07,3.07,0,0,0-4.13.76,5.73,5.73,0,0,0-.48.81,3.12,3.12,0,0,0-1,0l-1.29.27c-1.94.42-3.94.84-5.92,1.46a5.36,5.36,0,0,0-.6.24,5.51,5.51,0,0,0-.23-2.39,5.35,5.35,0,0,0-.62-1.33,11.39,11.39,0,0,0,4.33-3.13,14.15,14.15,0,0,1,1.22-1.16,11.21,11.21,0,0,1,2.28-1.19c.49-.22,1-.46,1.61-.73a3.17,3.17,0,0,0,1.31.27h1.85a14.22,14.22,0,0,0,2.2-.15c1.47-.24,2.9-.57,4.28-.89.57-.14,1.13-.27,1.71-.39a3,3,0,0,0,2.31-2.46l.09-.5a3,3,0,0,0,3.45-3.58l-.08-.36,2.46-.41a3,3,0,0,0,2.52-3.1l0-.72a3,3,0,0,0-3-2.86h-4.53a11.67,11.67,0,0,1,1-1,11.68,11.68,0,0,0,2.32-2.56,3,3,0,0,0-.81-4,6.55,6.55,0,0,0-3.89-1.53h0c-2,0-3.53,1.21-4.59,3.58a8,8,0,0,1-1.19,1c-2,1.54-3,3.2-3.13,5a5.43,5.43,0,0,0,.86,3.21l-.06.21c-.15.55-.31,1.08-.48,1.57l-1-2.24a3,3,0,0,0-4.25-1.4l-.55.3c-.28.15-.58.31-.88.49-.14-.55,0-.65.44-.89a25.57,25.57,0,0,0,8.44-8.56,10.42,10.42,0,0,1,1-1.18c.23-.26.46-.52.69-.8a2.61,2.61,0,0,0,.5-.85l.39-.38a7.73,7.73,0,0,1,.58-.56,4.74,4.74,0,0,0,.75.06,6.34,6.34,0,0,0,3.18-1l.64-.35a18.17,18.17,0,0,1,4.33-.08,5.15,5.15,0,0,0,2.87,1.75A3,3,0,0,0,207,36.38a3,3,0,0,0,1.79,3.2l.13.41c.36,1.24,1.34,4.53,5.13,4.53a7.12,7.12,0,0,0,1.48-.16,3,3,0,0,0,1.57-.89,3.18,3.18,0,0,0,1.82-.59,3,3,0,0,0,1.21-2.33v-.09a8.55,8.55,0,0,1,1.36.09,3,3,0,0,0,2.76-1.08,4.59,4.59,0,0,0,2.08-.44c1.34-.67,2.61-1.39,4-2.19a2.84,2.84,0,0,0,1.18.42,4.11,4.11,0,0,0,1.78,0,13.71,13.71,0,0,0,1.59-.59,6.32,6.32,0,0,1,1.15-.41l.09.05a3.14,3.14,0,0,0,1.76.53,4.42,4.42,0,0,0,3.48-2,1,1,0,0,0,.08-.14,27.57,27.57,0,0,1,3.09,1.37c.64.32,1.36.67,2.16,1l0,0a3,3,0,0,0,.26,1.59,3,3,0,0,0,2.42,1.74c2.62.26,4.74-.58,5.93-2.33.77-1.12,1.45-3.09.44-6.14,0-.11.07-.24.1-.37a3.16,3.16,0,0,0,.83-.53,16.71,16.71,0,0,0,1.19-1.21,2.61,2.61,0,0,0,.22-.24l.7.19a13.23,13.23,0,0,0,2.74.52h.16a3,3,0,0,0,2.77-1.85l.55,0-.45-.32a3,3,0,0,0,.07-1.42h.06l1.31-.1a3,3,0,0,0,2.45-1.7,3,3,0,0,0,.29-1.34l.07-.09c1.82-.56,3.74-1,5.64-1.49,1.31-.31,2.67-.64,4-1A6.93,6.93,0,0,0,281.66,19l.12-.13c.11.08.25.18.42.32a7.39,7.39,0,0,0,3.9,1.35l.53.07a27.93,27.93,0,0,0-3.46,2.18,3,3,0,0,0-1,3.3l-1.29,1,1.58-.34a3,3,0,0,0,3.18,1.37l.55-.09a7.12,7.12,0,0,0,2.58-.73A4.39,4.39,0,0,1,291,26.7a17.87,17.87,0,0,1,3.39.49c.9.19,1.82.39,2.8.51a6,6,0,0,1,.76.25,7.9,7.9,0,0,0,2.87.65,5.21,5.21,0,0,0,3.69-1.52c.35.06.77.15,1.23.27.1.2.2.44.28.61a12.7,12.7,0,0,1,.57,1.74c.09.34.19.68.29,1a3,3,0,0,0,2.56,2.1l1,.11a3,3,0,0,0,2.68-1.14l.37-.47h6.2a3,3,0,0,0,2.43-1.24,3.12,3.12,0,0,0,.51-1.17h.14l.09.21A3,3,0,0,0,325,31a3,3,0,0,0,2.75-.68,4.26,4.26,0,0,1,.44-.35,4.18,4.18,0,0,1,.52.45c1.87,1.83,4.75,1.89,6.86,1.93h.23c.4,0,.78,0,1.16,0s.93,0,1.11,0a1.07,1.07,0,0,1,.06.17,4.44,4.44,0,0,0,4.39,2.66c1.63-.14,3.27-.33,4.91-.53a3.1,3.1,0,0,0,.87.65l2.65,1.31a3,3,0,0,0,3.16-.32,3,3,0,0,0,1.09-1.75,23.15,23.15,0,0,1,5.52,1.41,2.94,2.94,0,0,0-1.15,1.69l-.19-.05a3,3,0,0,0-3.24,1.24l-.13,0Zm-16.18,15a9.32,9.32,0,0,1,.77-.78l.14.15c-.07.1-.14.21-.24.34a9.48,9.48,0,0,0-.66,1,4.53,4.53,0,0,1-.72,1A2.77,2.77,0,0,1,339.88,53.85ZM299.15,77.59c-.52,0-1,.13-1.29-.14l1.61-1Zm-84.37,42.6c-2.85,3.37-2.05,7.37-1.21,10.09a13.57,13.57,0,0,1,.75,3.75,4.12,4.12,0,0,1-.82.62c-3.63,2-5.15,3.76-4.58,8.64v.05a5.43,5.43,0,0,0-2.59,4c-.21,1.87-4.2,5.65-6.09,5.77a16.73,16.73,0,0,0-2.06.31l-.88.15-.19-.7a16.67,16.67,0,0,0-.53-1.81c-.49-1.29-1-2.6-1.49-3.88-1.27-3.28-2.58-6.68-3.64-10A4.07,4.07,0,0,1,192,135c3.23-6-.41-11.12-1.6-12.8-1.54-2.16-1.64-2.73-1.24-3.83a4.87,4.87,0,0,0-.29-4.47,5.49,5.49,0,0,0-4.32-2.32l-.23-.14a6.51,6.51,0,0,0-2.15-.88,19.11,19.11,0,0,0-5.29-.36c-1.29.15-2.54.39-3.75.63a24.93,24.93,0,0,1-4.8.65,6,6,0,0,1-2.37-1.67,25.35,25.35,0,0,1-4.15-5.18,12,12,0,0,1,.09-1.25c0-.42.08-.84.1-1.27,0-.08.05-.19.08-.28a5,5,0,0,0,.12-2.89c-.9-3,.52-4.67,4-7.72a8.56,8.56,0,0,0,2-2.94c.13-.29.26-.56.39-.79s.33-.61.48-.89a5.8,5.8,0,0,1,.64-1.09A14.53,14.53,0,0,1,171.28,84a8.05,8.05,0,0,0,1.11.08,15.73,15.73,0,0,0,4.83-1l.58-.19a23.07,23.07,0,0,1,6.06-1,2.9,2.9,0,0,0,0,1.65,3,3,0,0,0,1.67,1.88l9.23,4a3,3,0,0,0,4.05-1.81l.12-.36.3.13a19.15,19.15,0,0,0,7.4,1.25H207a3.08,3.08,0,0,0,.25,1.91l1.43,2.88c.91,1.83,1.78,3.57,2.62,5.29.26.53.5,1.1.75,1.69a18.64,18.64,0,0,0,2.36,4.43,9.89,9.89,0,0,0,3,2.43,3.33,3.33,0,0,0,.6,2,5,5,0,0,0,4.05,1.94,4,4,0,0,0,.7-.06l1-.17a13.68,13.68,0,0,1-3.31,3.86A41.31,41.31,0,0,0,214.78,120.19ZM213.59,70l1,.66c.87.55,1.77,1.11,2.59,1.71a1.61,1.61,0,0,1,.34.4,1.62,1.62,0,0,1-.23.18,17.57,17.57,0,0,1-2-.19c-.66-.08-1.34-.17-2-.2h-.7c-.65,0-1.3,0-1.94,0s-1.56.07-2.34,0a20,20,0,0,1-2.24-.23l-.13,0a4.1,4.1,0,0,1,.23-1.48,20.87,20.87,0,0,1,1.73-2.71l.28-.39a7.92,7.92,0,0,0,1,1.48,3.38,3.38,0,0,0,1.41.82l.43.17.92.44.41-.93a3.8,3.8,0,0,0,.18-.47c0-.12.11-.3.12-.33.24-.22.49-.43.74-.63l-.54,1.16Zm-5.35,6.65c.83,0,1.67,0,2.47,0h-.1a15,15,0,0,1-3.43.13,1.76,1.76,0,0,1-.41-.21C207.24,76.55,207.73,76.59,208.24,76.61ZM190.43,70a22.3,22.3,0,0,1,3,2.76A10.25,10.25,0,0,1,190.43,70Zm-13.36,6.69a5.24,5.24,0,0,1,1.08-1.56l.52-.63c.14-.17.28-.37.42-.57s.59-.84.78-.9c1.81-.57,3.72-1,5.57-1.37l.68-.14.18.19,1.29,1.15c.71.63,1.45,1.28,2.14,2s1.2,1.24,1.77,1.87c.25.29.51.57.77.85l.88,1,2.16-3.38a21,21,0,0,1,2.44,5l.58,1.67,3.44-4.1-1.15-2a5.53,5.53,0,0,1,1.11-.39,11.87,11.87,0,0,1,.69,1.79l.17.51a5.61,5.61,0,0,0,3.95,3.09,17.78,17.78,0,0,0,4.51-.11l.68-.07,0,.08a23,23,0,0,1-1,3,3,3,0,0,1-.86,1l-.91,0c-.76,0-1.51,0-2.26,0a15.08,15.08,0,0,1-5.87-1,8,8,0,0,0-2.83-.82c-1.43,0-2,1-2.56,2.46l-7.25-3.16a3.77,3.77,0,0,0,.22-3.11,2.15,2.15,0,0,0-1.9-1.16,28.07,28.07,0,0,0-9.87,1.16l-.66.21c-.36.12-.72.24-1.07.34A5.9,5.9,0,0,0,177.07,76.68Zm40.49,25.73a16.05,16.05,0,0,1-1.85-3.55c-.27-.63-.54-1.27-.84-1.89l-1.18-2.39c.5.84,1,1.68,1.5,2.51a13.2,13.2,0,0,0,.95,1.3,7.91,7.91,0,0,1,1,1.41c.56,1.17,1.08,2.4,1.59,3.6A4.58,4.58,0,0,1,217.56,102.41ZM174,73.9a6,6,0,0,0-.75,1.5,1.94,1.94,0,0,1-2.63,1.1,6.2,6.2,0,0,0-.78-.28c0-.77,0-1.55,0-2.33.81,0,1.81,0,2.78,0H174Zm55.87,19-3.05-4.38a4.84,4.84,0,0,1,.58.38,7.83,7.83,0,0,1,.93.91,4.28,4.28,0,0,0,2.51,1.7,7.47,7.47,0,0,1,1.39.29ZM188.1,52.78l1.3,3h-1a2.24,2.24,0,0,0-.38-.2A4.25,4.25,0,0,0,188.1,52.78Zm6,.65a16.61,16.61,0,0,0,1.49-3.9c.16-.54.31-1.09.5-1.63l.2-.6-.46-.44a2.34,2.34,0,0,1-.9-1.63c0-.61.58-1.33,1.59-2.12a7.28,7.28,0,0,0,2.38-2.54c.36-.81.69-1.23,1-1.23a1.6,1.6,0,0,1,.66.21c-.28.3-.61.59-.95.89-1.63,1.46-3.88,3.46-1.9,7.39l.27.55H199l.51,2.39a2.49,2.49,0,0,0-.7-.11c-1.51,0-1.85,1.24-2.35,4l-1.1.25c-1.37.32-2.67.63-4,.84a8.67,8.67,0,0,1-1,.09l.16-.09a10.56,10.56,0,0,1,1.07-.52A5,5,0,0,0,194.09,53.43Zm-7.81-2.59a5.08,5.08,0,0,1,.77-.48l.15.36-.48.09-.59.14Zm26.33-12.43.56.12-.3.73c0-.12-.09-.26-.13-.4S212.65,38.56,212.61,38.41Zm3.67.8-1.8-.48a7.92,7.92,0,0,0,.85.05,3.19,3.19,0,0,0,1.18-.24A4.39,4.39,0,0,0,216.28,39.21ZM248.54,30h0v0ZM170.73,57.87a6.94,6.94,0,0,0-.08-.74,5,5,0,0,1,0-1l.35.26a7.86,7.86,0,0,1,.82.64,4.55,4.55,0,0,1-.79.59A1.16,1.16,0,0,0,170.73,57.87Zm1.56,5a1.68,1.68,0,0,1,.93-.29,11.85,11.85,0,0,0-1.24.73c-.3.19-.6.39-.93.57ZM302.87,78.62,302,78a2.83,2.83,0,0,0-.83-.39l2-.62Z"/><path class="cls-1" d="M358.63,160.05c-.85,0-1.25-.53-1.89-1.46a4.35,4.35,0,0,0-1.81-1.77l-1.74-.73,1.54,7.48-.51.26c-.23.12-.47.22-.7.33a9.52,9.52,0,0,0-1.78,1,21.5,21.5,0,0,0-1.79,1.61c-.31.3-.62.6-.94.89-.57.52-1.16,1-1.75,1.51L346,170.23l.54,2.3.74.05a9.62,9.62,0,0,1,1,.14,8.43,8.43,0,0,0,1.46.18,1.88,1.88,0,0,0,1.42-.51,46,46,0,0,0,3.65-4.55c.2-.29.41-.57.62-.86l.34,1.64,7-9.85-3,1A3.29,3.29,0,0,1,358.63,160.05Z"/><path class="cls-1" d="M294.74,111.91,293.53,113c-.95.89-1.85,1.73-2.83,2.49a4.41,4.41,0,0,1-2.16,1.1,2.5,2.5,0,0,0-2.09.85,2.53,2.53,0,0,0,.08,2.38,6.94,6.94,0,0,0,7.23,4.7c.93-.11,1.59-1,2.11-1.92s1-1.87,1.53-2.87c.05-.08.09-.17.13-.25h.14l0,.12a26.83,26.83,0,0,0-.52,3.72c-.05.54-.1,1.07-.16,1.6l-.12,1,3,.35,0-.39.31.6,1.68-1.82.52-4.75h0a1.59,1.59,0,0,0,.76-.21l4.95-1.33-3.1-.25,1.62-1.42-4.4,1.18c-.14,0-.35-.12-.53-.19a4.88,4.88,0,0,0-1.71-.41,2.32,2.32,0,0,0-2.26,1.82l-.07,0,.33-.66.28-.53-.34-.49a5.73,5.73,0,0,1-.77-1.3,7.88,7.88,0,0,1,1.26-1.67l.82-1-4.05-2.09Zm-3.48,8a12.07,12.07,0,0,0,1.9-1.23l.52-.42c-.41.8-.8,1.57-1.22,2.28A2.84,2.84,0,0,1,291.26,119.9Z"/><path class="cls-1" d="M316.8,21.68a2.69,2.69,0,0,0,1.78,1h.31a32.5,32.5,0,0,0,4.6-.42,5.19,5.19,0,0,0,1.51-.55l.48-.23.9-.37-.86-2.22-.55-.1-1.62-.31a31.35,31.35,0,0,0-4.46-.67h-.09c-.86,0-1.46.74-2,1.39-.17.21-.34.42-.5.58l-.82.8.9.7C316.52,21.41,316.66,21.55,316.8,21.68Z"/><path class="cls-1" d="M186.57,10.55c.19,2.13.93,3.44,2.28,4l4.11,5,3.58-5c1.52,1.69,2.18,2.28,3.08,2.28s1.35-.55,2-1.26l.83-.88-3.25-2.06a7.63,7.63,0,0,0,5.63-2.41l1.6-1.6-14-.62.58.72-1.89-1.19.37,2.49-5.08-.77Z"/><path class="cls-1" d="M234.32,72c-.44-.36-.85-.68-1.26-1s-.52-.4-.75-.59a5.55,5.55,0,0,0,.42-.49l.11-.13a3,3,0,0,0,.87-2.36,2.94,2.94,0,0,0-1.22-2.19l-.25-.22a4.19,4.19,0,0,0-2.84-1.34,3.23,3.23,0,0,0-1.19.23l-.66.26a13.64,13.64,0,0,0-5,2.86c-2.32,2.35.05,6.52.55,7.33l.33.51.27.43a3.62,3.62,0,0,0-.2,3A4.29,4.29,0,0,0,226,81.16a23.77,23.77,0,0,0,3.41.82l1,.2a3.18,3.18,0,0,0,.62.06,3,3,0,0,0,3-3.4L233.78,77a3,3,0,0,0,1.55-2A3,3,0,0,0,234.32,72Zm-4.82,3.13c0,.16,0,.28.05.39l.32,2.46a19,19,0,0,1-2.39-.57,1.68,1.68,0,0,1-.16-.33c1.11-1.86.18-3.31-.51-4.38l-.28-.44a7.49,7.49,0,0,1-1-2.56,9,9,0,0,1,2.74-1.52,2.16,2.16,0,0,0-1,1.29,3.1,3.1,0,0,0,1.13,2.79,15.59,15.59,0,0,0,1.77,1.55l-.77.18Z"/><path class="cls-1" d="M65.48,14.21l9,2.12-.57-1.7a5.93,5.93,0,0,0-5.57-3.85,5.21,5.21,0,0,0-2.33.53l-2,1,2.58,1.1Z"/><path class="cls-1" d="M64.83,42.82A3,3,0,0,0,62.08,41h-.21l-5.46.37A3,3,0,0,0,54,43l-1,2a3,3,0,0,0-.07,2.68l.29.62a3,3,0,0,0,1.7,1.55,3.2,3.2,0,0,0,1,.17,3.08,3.08,0,0,0,1.3-.29l6.22-3a3,3,0,0,0,1.69-3l2.18-1Z"/><path class="cls-1" d="M224.67,132.72A41,41,0,0,0,221,135.3a5.1,5.1,0,0,0-1.39,2.87l0,.21a11.93,11.93,0,0,0-.37,4.1c.36,2.48,1,3.91,2,4.5a2.86,2.86,0,0,0,1.38.4c.93,0,2.18-.55,2.87-3.17.26-1,.55-2.05.84-3.07.41-1.43.82-2.92,1.18-4.4a24,24,0,0,0,.46-3c0-.45.1-.91.16-1.38l.3-2.21-1.85,1.25Z"/><path class="cls-1" d="M328.49,163.78l-6.47.34,1.19,1.52c.3.37.58.8.85,1.21.77,1.17,1.33,2,2.24,2h.18a2.83,2.83,0,0,0,2.11-1.36,3.46,3.46,0,0,0,.16-3Z"/><path class="cls-1" d="M152.87,32.69l.93-.28-.26-.95,1.61-1.86-1.78-2.32,1.17-.17-.15-1.72,2.33-.17-1-1.63,3.13-.33-2.53-2,3.07-1.2-3.4-2,4.62-.76-5.57-3.15L159,9.74l3.31-1.55,1.2-.61,3.22-1.65-2.36-.72a13.07,13.07,0,0,0-3.84-.59,19.24,19.24,0,0,0-6.11,1.2l.77-1.19,2.41-.4-3.07-1.35c-5.44-2.39-10-3.24-14.68-2.75a16.71,16.71,0,0,0-2.32.48,14.09,14.09,0,0,1-2.17.43,14.49,14.49,0,0,1-2.08,0c-.5,0-1-.06-1.5-.06a5.8,5.8,0,0,0-5.16,2.44l-.09.12L121.7,1.82l.72,1.94L120.54,3l-.11.44a2.52,2.52,0,0,0-1.29-.34,4.74,4.74,0,0,0-2,.53,5.67,5.67,0,0,1-1.74.33l-.71.08-1.37-.52A33.12,33.12,0,0,0,101.4,1.39C95.56,1.39,90,2.68,84.14,4.06l-3.75.86-1.64.36-.62-.35-.31.56-.13,0,.09.05-3,5.52,2.76,1.22-.47.5.85.68c1.53,1.21,2.66,1.92,4,1.92a4.18,4.18,0,0,0,1.83-.47l-.21.41h-.14l.12,0-.08.16.29.42-.66.75-.37-.36L82.4,17l-7-1.34-.48,1.54a3,3,0,0,0-3.08-.38c-1.42.78-2.25.73-3.39-.22l-1.07-.88-1.15,2.94-.45-.31c-.67-.46-1.2-.82-1.75-1.14a3.89,3.89,0,0,0-1.11-.39l-.34-.08-1-.3-.23,1c0,.09,0,.18-.07.26a3.36,3.36,0,0,0-.17,1c-.29-.13-.59-.29-.89-.45a6.47,6.47,0,0,0-3-1,2.78,2.78,0,0,0-.78.1l.06-.15a3.52,3.52,0,0,1,.21-.52L57,16l-1.43-1.67-8.1,3.5.81,2.67.91-.22L50.76,20c1.16-.26,2.35-.53,3.53-.87a8.74,8.74,0,0,0-.69,1.44l-.46,1.19A18,18,0,0,0,48,21.42l-1.33,0L44.33,28l1,.31a10.19,10.19,0,0,1,1.1.42,6.86,6.86,0,0,0,2.62.73,2.71,2.71,0,0,0,.71-.09A5.65,5.65,0,0,0,52.06,28a3.17,3.17,0,0,0,.62,1.51,3,3,0,0,0,.86.75l-.07,1a23.57,23.57,0,0,0-2.9-.56,18.58,18.58,0,0,0-2.25-.11l-1.71,0-1.36,0-1.4-1.76-.75.46a8.39,8.39,0,0,0-.73.48,3.24,3.24,0,0,1-.86.5,11.32,11.32,0,0,1-1.7.15c-.54,0-1.09,0-1.65.13s-1.42.27-2.1.43a12.14,12.14,0,0,1-3.38.48,26.36,26.36,0,0,1-4.63-.85c-.8-.2-1.61-.4-2.42-.56l-1.15-.23c-2.38-.48-4.84-1-7.28-1.35l-.76-.13a9.34,9.34,0,0,0-4.43,0,61.45,61.45,0,0,0-6.65,3c-.91.46-1.84.93-2.8,1.39L1,33.59,5.73,37,0,37.45l.82,1.37C2.14,41,3.75,42.07,5.88,42.07h.43c-.76.51-1.57,1-2.41,1.5l-1.25.75-1,.61.78.9a8.91,8.91,0,0,1,.91,1.38c.6,1,1.35,2.35,3,2.35a2.45,2.45,0,0,0,.46,0L7,51h4.1L6,57.11l3.54-1.33a16.76,16.76,0,0,0,8.17-6.37l.27,2,5.11-3.65,9.84,3-.38.11,2.73,3.05-.18.38,1.79.22L36,56.75l2.14-.12.46,0a31.14,31.14,0,0,1,3.84,3.73l-2.67-.59,2.48,2.44C46,65.92,46,65.92,46,71.43v.45c0,5.13,2,9,5.87,11.31a7.81,7.81,0,0,1,2.86,3.71,12.46,12.46,0,0,0,2,3.25,22.33,22.33,0,0,1,2.07,2.72l.94,1.35.57.77,2.32-1.54-.6-1c1,1.06,2,2.15,3,3.24a3.13,3.13,0,0,1,.63,1c-.27,1-.34,2.91,2.21,3.86a23.25,23.25,0,0,1,2.48,1.19,12.09,12.09,0,0,0,5.76,1.9,7.28,7.28,0,0,0,1.51-.16,3.25,3.25,0,0,1,.73.34l.48.26c1.4.68,2.88,1.42,4.34,2.2.2.11.43.22.66.33a3.65,3.65,0,0,1,1.26.8c1.45,2.74,3.91,3.9,5.89,4.83l1,.47L93.31,111c1.73,2.94,1.66,4.43-.13,6.09l-1,.93,1.18.67.72.4a12.55,12.55,0,0,1,1.11.66c.31.22.61.46.91.72a10.23,10.23,0,0,1-.86,1c-.49.47-1,.91-1.59,1.38l-.27.22L90,121l.43,2.21c.09.43.14.82.19,1.17a5.45,5.45,0,0,0,.51,2c.51.91,1.08,1.78,1.62,2.63a37,37,0,0,1,1.94,3.24,10.93,10.93,0,0,0,5.51,5.66c1,.43,2.37,1.35,1.85,4.28q-1.23,7-2.49,14-.93,5.25-1.87,10.5a1.58,1.58,0,0,0,.23,1c.06.11.13.24.21.42l.6,1.4a1.89,1.89,0,0,1-.86.35c-.92.2-.82,1.06-.73,1.83,0,.15,0,.3,0,.42s.06.39.1.59.06.35.09.33a5.3,5.3,0,0,0,1.23,6.17l.25,4,1.42-.51-1,1.38,8.92.54.52-2.41-.79-.31c-.64-.25-2.5-1.09-2.74-2.63l.47-.65-.49.18a2.5,2.5,0,0,1,.06-.38A10.2,10.2,0,0,1,107,175c.36-.5.69-1,1-1.46l.29-.47-.25-.5c-.17-.31-.38-.66-.59-1s-.3-.48-.41-.68a25.72,25.72,0,0,1,2.24-2.65l.9-1,.56-.64-.86-1.06h1.66l.56-2.11c.44-.16.86-.3,1.28-.43a10.84,10.84,0,0,0,3.36-1.52,2.44,2.44,0,0,0,.74-3.4,4.51,4.51,0,0,0,4.44-2.21c.71-1.06,1.5-2.1,2.27-3.1.5-.66,1-1.31,1.48-2a4.14,4.14,0,0,0,.8-1.7c.38-2.58,1.84-4,4.58-4.47.58-.09,2.52-.51,3.18-1.76l.19-.37c.93-1.78,2-3.8,2-5.85,0-2.71,1.22-4.34,3-6a5.29,5.29,0,0,0,1.47-4.8,2.46,2.46,0,0,0-1.64-2,8.36,8.36,0,0,1-2.14-1.13,7.57,7.57,0,0,0-4.15-1.59,6.07,6.07,0,0,0-.94.08,3.27,3.27,0,0,1-1-.49,7.53,7.53,0,0,0-1.39-.7,10.15,10.15,0,0,0-1.58-.34,6.35,6.35,0,0,1-1.5-.35,3.16,3.16,0,0,1-1.54-1.19l-.3-.78c-1-2.74-1.92-5.12-6.42-5.26-1.62,0-4.79-2.77-5-3.75l-.17-.8h-2.22c-1.13,0-2.26,0-3.39,0a4.07,4.07,0,0,1-1.7-.31,6.06,6.06,0,0,0-2.69-1,2,2,0,0,0-.44,0l.42-2.65-7.43,5.41-.57-.13-.26-.07.23-.3-.91,0-.75-1.14-.81,1.07-.93-.12.23.36h-.2a1.74,1.74,0,0,1-1.28-.46,1.92,1.92,0,0,1-.4-1.46c.15-2.38.22-3.58-.56-4.41a3.56,3.56,0,0,0-2.71-.77l-1.51,0L87,95.58l11.61,4.18-1,2.06,8-1,.11-2.43-5.74-1.26-.74,1.45.55-1.95-1.15-.15a9.94,9.94,0,0,1-3.16-1.2,9.68,9.68,0,0,0-4.3-1.37,5.38,5.38,0,0,0-2.31.53l-1.75.84.28-1-1.93.86a16.43,16.43,0,0,1-1.54.58,4.56,4.56,0,0,0-2.54,1.48c-.86,1.25-1.83,2-2.67,2s-1.72-1-2.15-1.81c-.68-1.26-.65-3.16-.54-4.85.21-3.26,1.27-3.9,3-3.9a10.75,10.75,0,0,1,2,.23c1.27.26,2,.14,2.36-.38.71-.89,1.34-.63,2.22-.47a8.36,8.36,0,0,0,1.48.17h.25c1.42,0,1.56.53,1.94,2a5.62,5.62,0,0,0,.15.55,5.76,5.76,0,0,0,1.11,1.94c.16.22.32.43.46.65l.44.66L93.91,93l-.2-.85c-.09-.41-.17-.82-.25-1.23a16.66,16.66,0,0,0-.74-2.94c-.56-1.48-.33-2.34.85-3.19s2.09-1.61,3.07-2.42l1.25-1,.56-.44-.92-2.53a1.69,1.69,0,0,0,1.07-.88,7,7,0,0,1,2.51-2.7,9.6,9.6,0,0,0,3.22-3.52c.17-.37.89-.7,1.71-1l1.25,1.84,10.19-4.51-4.31-.17a16.36,16.36,0,0,1-1.9-.17l1.83-2.07-3.19,1.44c-.26-.44-.26-1.36,0-3L110,63l.54,0,.26,0a18.68,18.68,0,0,0,4.55-1L113,66l8.74,1.42.22-.9c.51-2.07-1.06-3.06-2.1-3.71-1.24-.78-1.65-1.14-1.43-2.15l0-.2a2.5,2.5,0,0,0,.7-1.51,2.46,2.46,0,0,0-.14-1l.79-3.5L118.31,57a3.2,3.2,0,0,0-.54-.41l-.76-.48c-1-.64-2.07-1.29-3-2a4.25,4.25,0,0,1-1.22-1.45c-.66-1.32-1.26-2.68-1.9-4.12l-.81-1.82-.67-1.48-1,1.26c-.2.24-.33.42-.43.54l-.17.21L105.89,49c-.49-.66-1-1.31-1.43-2a.22.22,0,0,1,0-.08,1.43,1.43,0,0,0-.62-1.16l-.28-.17c-2.1-1.26-4.27-2.56-6.85-2.56a7.51,7.51,0,0,0-1.7.19l-.73.17-.37,7.41.35.32c.32.29,1.31,1.19,1.29,1.66,0,.67-1.89,2-2.59,2.51l-.58.42.2.67a8.85,8.85,0,0,1,.6,2.67c0,.13-.19.29-.44.49l-2.25-5L90,54.43c-3.39-.83-7.26-3.06-10.61-5.14-1.25-.78-1.11-1.14-.42-2.26a16.19,16.19,0,0,1,2.07-2.51c.35-.38.71-.76,1-1.14l.64-.73A6.5,6.5,0,0,0,84.65,42l-.48,1.48,11.65-.83-1.3-.81c.5,0,.94,0,1.34,0a10.44,10.44,0,0,1,1.86,0,9.24,9.24,0,0,1,2.89.84c1.34.74,2.67,1.6,4,2.44l1.65,1.06.83.53,1.42-2.17-.56-.66,1.52.27.83-2.14-.41-.45c-.19-.22-.38-.46-.56-.69s-.17-.22-.26-.32l.53.4,4.58-4.38L106.88,33a2.66,2.66,0,0,0,.16-1.44A4.08,4.08,0,0,0,104.86,29c-1.79-1.05-3.64-2-5.36-2.82l1.39-.8L99,25.91l-.41-.19,1.33-.35-2.53-1.16c-.36-.16-.69-.34-1-.5a6,6,0,0,0-2.71-.92,2.91,2.91,0,0,0-1.48.4l-.24-.3A3.66,3.66,0,0,0,93.46,22c.17-.14.33-.28.49-.39l.66-.44-.77-2.09-.34,0L94,19l1.1-.1,1-.09-.21-2.46-.33-.08a21.25,21.25,0,0,0,3.74-2.39l-1.43,1.27,3.56.7L99,16.22l2.77,1.38a25.7,25.7,0,0,0,8.13,1.79H110a2.67,2.67,0,0,1,.47.07l.33.06c4.6.69,6.41,2.78,6.91,8l0,.56,2.41,1.18-3.76,1.54L118,31.84c1.3.89,1.89,1.29,2.61,1.29a1.88,1.88,0,0,0,.43-.05,2.81,2.81,0,0,0-1.12,4,13.91,13.91,0,0,1,.59,1.79,14.41,14.41,0,0,0,.66,2c2,4.55,4.74,7.09,8.57,8a2.92,2.92,0,0,0,2.79-1.49,38.84,38.84,0,0,0,2.37-6.05c.37-1.33,1.06-1.71,2.81-2.1a10,10,0,0,0,3.16-1.54c.36-.23.72-.46,1.08-.67s.8-.49,1.2-.74a10.61,10.61,0,0,1,2.09-1.15c1.77-.64,3.62-1.19,5.41-1.72Zm-77.1-8.5v0Zm65.12,8.71q-.49.33-1,.6c-.44.25-.85.51-1.28.79a7.43,7.43,0,0,1-1.86,1c-2.45.55-4.85,1.53-5.79,4.94a31.5,31.5,0,0,1-1.63,4.31c-1.91-.83-3.35-2.5-4.59-5.31a13.33,13.33,0,0,1-.47-1.46,14.48,14.48,0,0,0-.52-1.68,4.86,4.86,0,0,0,2-3.06c.05-.16.09-.31.13-.41a3,3,0,0,0-.17-2.68,2.4,2.4,0,0,0-.18-.26,1.8,1.8,0,0,0,0-.22,3,3,0,0,0-1.67-2.8l-2.47-1.22c-1-5.93-4.13-9-10.07-9.88l-.19,0a5.92,5.92,0,0,0-1.21-.14h0a3,3,0,0,0-.67-1.42,8.13,8.13,0,0,0,2-1.71,3,3,0,0,0,.68-2.18l1.5-.53A2.94,2.94,0,0,0,115.14,8l.63-.06a10.13,10.13,0,0,0,2.45-.46,3,3,0,0,0,2,1.45l.31,1.93L121.07,9a3.11,3.11,0,0,0,1.72-.74l.23.09a3,3,0,0,0,3.22-.63l0,0,2.5.88a3.05,3.05,0,0,0,3.33-.94l3.54,1.25-3-2.25a3,3,0,0,0,0-1.62L133,5a21.22,21.22,0,0,0,2.64,0,16.7,16.7,0,0,0,2.83-.55,14.44,14.44,0,0,1,1.74-.37,20.47,20.47,0,0,1,4,0,2.86,2.86,0,0,0-.07.28l0,.25a3,3,0,0,0,2.8,3.6l2.17.09a3.18,3.18,0,0,0,.52,1.12,3,3,0,0,0,2.83,1.18l-1,.46h1l-1.24,1.4a3,3,0,0,0-.7,2.48,2.64,2.64,0,0,0,.22.74,3.06,3.06,0,0,0-.6,1.32,3,3,0,0,0,1.32,3.07,4.05,4.05,0,0,0-.12.5,2.82,2.82,0,0,0,0,.87,1.11,1.11,0,0,0-.07.16l-1.28.1a3,3,0,0,0-2.77,3.19l0,.77a2.94,2.94,0,0,0,.34,1.23,3.12,3.12,0,0,0-.4.62L146.51,29a2.93,2.93,0,0,0-.28,1.48c-.9.29-1.68.55-2.41.82A14.25,14.25,0,0,0,140.89,32.9ZM94.2,12.44a6.37,6.37,0,0,1-2.45.76,3,3,0,0,0-.35-2,5.23,5.23,0,0,0-1.93-2,3,3,0,0,0-.61-2.1A58,58,0,0,1,101.4,5.39c.88,0,1.75,0,2.61.1a.5.5,0,0,0,0,.13l-8,3.61A3,3,0,0,0,94.16,12,2.71,2.71,0,0,0,94.2,12.44Zm8.6,26.82,0,.14-.3-.17-.37-.19.23-.34c.14-.21.27-.41.38-.61A4.17,4.17,0,0,0,102.8,39.26Zm.73-3.62.19.16c-.09.12-.17.25-.25.38A5,5,0,0,0,103.53,35.64Zm-1-2.94a5.93,5.93,0,0,0-1-1c.39.21.77.43,1.15.65C102.62,32.45,102.58,32.58,102.55,32.7ZM96.94,57.29A6.15,6.15,0,0,0,99.53,53,5.23,5.23,0,0,0,98,49.21l.1-1.92a14.85,14.85,0,0,1,2.7,1.32,2.93,2.93,0,0,0,.31.58c.54.79,1.11,1.56,1.65,2.3l.58.79a3,3,0,0,0,2.15,1.22,3,3,0,0,0,2.33-.8l.38-.35c.32.69.65,1.4,1,2.1a8.26,8.26,0,0,0,2.4,2.86q.8.6,1.62,1.14a14.09,14.09,0,0,1-2.7.53l-.25,0c-2.5.21-5.61.48-8,3.46a3,3,0,0,0,1,4.61,5.29,5.29,0,0,0-2.55,2.48,6.23,6.23,0,0,1-2,2,11.85,11.85,0,0,0-3.22,3.25c-.15,0-.3.12-.46.19a3,3,0,0,0-1.57,3.75l.29.78c-.81.67-1.65,1.35-2.49,2a6.83,6.83,0,0,0-2.32,2.77,7.5,7.5,0,0,0-1.61-.17h-.25a4.84,4.84,0,0,1-.77-.11,9.52,9.52,0,0,0-1.77-.2,5.22,5.22,0,0,0-3.13,1A13.33,13.33,0,0,0,79,84.56c-3,0-6.61,1.33-7,7.64a14.38,14.38,0,0,0,.67,6.28l-.41-.22A26.68,26.68,0,0,0,69.66,97a6.06,6.06,0,0,0-1.63-4c-1.11-1.26-2.26-2.48-3.43-3.72-.81-.87-1.65-1.76-2.4-2.58a2.47,2.47,0,0,1-.2-.37,9.75,9.75,0,0,0-.51-.89c-.33-.51-.68-1-1-1.46l-.4-.56a3.06,3.06,0,0,0-3.35-1.13,9.21,9.21,0,0,0-2.83-2.6C51.3,78.22,50,75.57,50,71.88v-.44c0-4.75-.11-6.66-2.29-9.29a3.39,3.39,0,0,0-.39-1.94A24.55,24.55,0,0,0,43.83,56a28.71,28.71,0,0,0-2.55-2.37,3,3,0,0,0-.42-1.49,3.12,3.12,0,0,0-.34-.47,3,3,0,0,0-.83-2.17l.6-1.19-1.07.79a3.1,3.1,0,0,0-1.11-.47,3.05,3.05,0,0,0-1.38-.89l-12-3.66-1-.29a3,3,0,0,0-2.61.43l-.52.36a3.06,3.06,0,0,0-1.7-1l0-.23-.12.21a3,3,0,0,0-3.1,1.53,20.46,20.46,0,0,1-1.61,2.53A3,3,0,0,0,12.24,47h-2a3.07,3.07,0,0,0-1.34-1.42,2.83,2.83,0,0,0-.4-.17l.36-.25a7.07,7.07,0,0,0,2.61-3.53,3,3,0,0,0-.29-2.6,3.13,3.13,0,0,0,.19-.51,3,3,0,0,0-1.15-3.23L8.79,34.22a45.2,45.2,0,0,1,4.59-2,1.18,1.18,0,0,1,.42,0,13,13,0,0,1,2,.24l.83.14c2.36.37,4.77.85,7.1,1.32l1.16.23c.74.15,1.47.33,2.25.52a29.13,29.13,0,0,0,5.35,1A15.39,15.39,0,0,0,37,35c.63-.15,1.22-.29,1.78-.37.35,0,.77-.07,1.22-.09a14.54,14.54,0,0,0,2.33-.23,5.76,5.76,0,0,0,.68-.19,3,3,0,0,0,1.79.59c.67,0,1.32,0,2,0s1.46,0,2.08,0c-1.37.63-2.73,2-3.24,4.91a3,3,0,0,0,1,2.83,3.07,3.07,0,0,0,3,.5l5.83-2.18A3,3,0,0,0,57.37,38a10.67,10.67,0,0,0,2.88,0c.33,0,.65-.06.93-.06h.26s.07.06.17.25a3.06,3.06,0,0,0,2.71,1.53h0a3,3,0,0,0,2.61-1.68,3.86,3.86,0,0,0,.25-.64,9.26,9.26,0,0,0,6.43.12,3,3,0,0,0,1.33.9l.63.22a3.05,3.05,0,0,0,3.21-.86l1.82-2a2.92,2.92,0,0,0,1.08.43h.06l0,0A3.75,3.75,0,0,0,82.86,38a2.91,2.91,0,0,0-.12.39c0,.11,0,.16,0,.18a7.39,7.39,0,0,1-1.12.23,14.29,14.29,0,0,0-2,.45,3,3,0,0,0-2,2.4,3.17,3.17,0,0,0,0,.87A15.85,15.85,0,0,0,75.57,45c-1.91,3.11-1.3,5.86,1.72,7.73A49.69,49.69,0,0,0,87.6,57.9l2,4.41A3,3,0,0,0,91.51,64,3,3,0,0,0,94,63.56C96.58,61.79,97.63,60.67,96.94,57.29Zm-14-33.17,1-1.1,1.15,0c-1.26.54-1.44,1.91-1.67,5.17l-2.3.67,1.44,1.2a9.79,9.79,0,0,0,4,1.68c0,.12-.07.24-.11.35A7.74,7.74,0,0,1,86,33.57a4,4,0,0,1-.46.67v-.13c0-.85-.09-2.61-1.71-2.61a2.7,2.7,0,0,0-1.25.36l-3-4.57a8,8,0,0,0,1.24-.81,12.08,12.08,0,0,0,1.47-1.55C82.45,24.68,82.68,24.41,82.94,24.12ZM72.46,33.66a3.66,3.66,0,0,1-1.4.37l.38-1.93,1.21-.27-1.21,1.41ZM69,24.11l-.59,2,5.3,4.09,1.48-1.72,0,.12a5.1,5.1,0,0,0-.3,1.74L74.24,30l-.47.54L72.26,30c-2.4-.83-3.62-1.63-4.07-2.66-.38-.88-.24-2.06.44-3.6l.45-1,1,1.53Zm-1.83-3.89.28-.66.83.43a44.93,44.93,0,0,0,4.36,2.1l.25.08h.19A3.39,3.39,0,0,0,75.65,20a3,3,0,0,0,0-1.43,3.13,3.13,0,0,0,1.17.58l.42.08c1.7.31,2.23.48,2.22,1.86a1.38,1.38,0,0,0,.52,1l-.34,0c-1.66-.18-2.64,0-3.28.73l.07-.18h-7.3l.49-1.09-7,2.93.1.49a1.7,1.7,0,0,0-.85-.24l-.33,0A5.48,5.48,0,0,1,57,23.6l2.73-.5c2.06-.38,4.19-.77,6.28-1.23C66.88,21.68,67.1,20.75,67.21,20.22ZM56.59,21.89l.35,1.65-.2-.15a10,10,0,0,0-3-1.5Zm47.32,88.94h0a7.61,7.61,0,0,0,3.45.79c.63,0,1.32,0,2.15,0h1.07c1.71,2.21,5,4.46,7.57,4.54,1.83.06,1.85.11,2.84,2.75l.28.73A6.87,6.87,0,0,0,125,123.1a10,10,0,0,0,2.47.63,9.32,9.32,0,0,1,1,.19,5.61,5.61,0,0,1,.57.33,5.93,5.93,0,0,0,3.09,1.06,3.93,3.93,0,0,0,.69-.06c.59-.1,1.07.18,2.22.92a16,16,0,0,0,2,1.17,1,1,0,0,1-.17.38,11.47,11.47,0,0,0-4.36,8.91,10.49,10.49,0,0,1-1.5,3.92,2.94,2.94,0,0,1-.54.14c-4.36.73-7.14,3.43-7.84,7.61a.77.77,0,0,1-.1.15c-.46.64-1,1.28-1.46,1.94-.79,1-1.6,2.11-2.37,3.24-.34.49-.47.49-.57.49a4.2,4.2,0,0,1-1.66-.51,3.06,3.06,0,0,0-3.41.63l-.4-.19.23.38a3,3,0,0,0-.25,3.46c.21.34.43.66.64,1-.32.12-.69.23-1.06.35-.59.2-1.26.41-2,.69a3,3,0,0,0-1.69,1.66h-.71a3,3,0,0,0-2.33,4.9l0,0a21.5,21.5,0,0,0-2,2.51,3.69,3.69,0,0,0,.1,3.92,14.83,14.83,0,0,0-2,3.6,3.39,3.39,0,0,0-.42-.33,1.34,1.34,0,0,1-.22-1.43,4,4,0,0,0,.32-2.16,5.56,5.56,0,0,0,1.73-4.76c0-.14,0-.31,0-.45a3,3,0,0,0-.72-3.85l1.26-7.07c.8-4.46,1.62-9.06,2.42-13.6.71-4-.88-7.26-4.25-8.66-1.45-.61-2.4-1.64-3.48-3.78-.65-1.28-1.41-2.45-2.14-3.6-.12-.17-.23-.35-.34-.52l.46-.38c.63-.52,1.22-1,1.81-1.58a14.72,14.72,0,0,0,1.39-1.57l.38-.45a3,3,0,0,0-.37-4.27l-.48-.4c-.27-.24-.55-.47-.85-.71a7.23,7.23,0,0,0,.15-4.7l.8-.58a3,3,0,0,0,.72.56l-.62,3.89,1.72-3.55a3,3,0,0,0,3-1.67ZM93.71,40.2,93,41l-4.09-2.53a5.8,5.8,0,0,0,1.89-.77,4.52,4.52,0,0,1,.46-.25l.58-.23.32-5.06a6.38,6.38,0,0,0,2.13-.57l1,.7,3.62,2.51c.68.49.85.67.16,1.68-1.14,1.66-1.61,2.25-3.08,2h-.19c-.64,0-1,.46-1.48,1C94.17,39.66,94,39.93,93.71,40.2ZM105.24,9.43l.26,1.07,1.26.31a11.73,11.73,0,0,1-2.57.81,12.63,12.63,0,0,0-3.87,1.43l.77-.59-1.37-.55Z"/><path class="cls-1" d="M329.85,141.66a14.74,14.74,0,0,1-3.54-4.81,30.34,30.34,0,0,0-2.27-4.42c-.41-.7-.84-1.42-1.26-2.2l-.16-.29a1.85,1.85,0,0,0,1-.6c.28-.35.54-.57.7-.57s.75.39,1.17.73l.24.19a17.85,17.85,0,0,0,2.43,1.52c.35.19.69.38,1,.58l.82.48,1.32-2-.49-.58c-.49-.58-.95-1.21-1.44-1.88a14.89,14.89,0,0,0-3.87-4.11c-.35-.22-.7-.44-1-.68-1.83-1.19-3.89-2.55-6.25-2.55a6.48,6.48,0,0,0-3.48,1c-.39-1.18-1-2.57-2.57-2.57a4.15,4.15,0,0,0-2.21.82l-.86.57.59.84c2.09,3,2.25,3.08,5.84,4.26l.41.11c.13,0,.32.09.44.14a11.07,11.07,0,0,1,.65,1.66l.36,1,.16.42.42.16.37.16a12.57,12.57,0,0,0,2.28.8,2.38,2.38,0,0,0,.4.07l-1.51,6.87a12,12,0,0,1-3-2c-.22-.31-.14-.67.32-2.11l.35-1.11-1.15-.18a28.34,28.34,0,0,0-3.93-.46c-2.12,0-3,.93-4.33,2.95l-2.46-1.38-.54.57c-.47.51-.93,1-1.39,1.57a24.7,24.7,0,0,1-3.23,3.31,16.82,16.82,0,0,1-4.88,2.4c-3.37,1.18-4.83,3-4.34,5.51.21,1.07.51,2.11.81,3.12.21.71.42,1.42.59,2.14.07.29.15.57.22.86A9.19,9.19,0,0,1,293,155a3.86,3.86,0,0,0,.77,2.93,2.49,2.49,0,0,0,1.86.75,4.54,4.54,0,0,0,1.33-.23l3.24-1c2.33-.76,4.75-1.55,7.14-2.18a7.32,7.32,0,0,1,3.93-.07,7.2,7.2,0,0,1,2.18,1.59c.4.37.81.74,1.24,1.09l.66.53,1.15-1c1.12,2.35,3.73,5.15,5.79,5.54l.66.14a10.24,10.24,0,0,0,2.14.32,2.84,2.84,0,0,0,1.54-.39,4.79,4.79,0,0,1,1.23-.47c1.32-.39,3.32-1,3.4-3.79a6.19,6.19,0,0,1,1.33-2.62c.14-.18.26-.36.38-.54,2.17-3.18,1.92-7.48-.63-11A27.63,27.63,0,0,0,329.85,141.66Zm-8.4-15.79-.15.13-.57-.19-.17-.48C320.85,125.49,321.15,125.68,321.45,125.87Zm5.84,32.57-.55.16a10.33,10.33,0,0,0-1.81.68,10.2,10.2,0,0,1-1.11-.21l-.74-.15c-.75-.25-3-2.82-3.12-3.74a3,3,0,0,0-1.92-2.44,3.14,3.14,0,0,0-1.05-.19,3,3,0,0,0-1.63.48,8.35,8.35,0,0,0-2.8-1.7,11.21,11.21,0,0,0-6.22,0c-2.51.66-5,1.47-7.38,2.25l-1.95.64a15.75,15.75,0,0,0-.61-3.21c-.07-.25-.13-.49-.19-.73-.19-.8-.42-1.57-.64-2.33-.29-1-.56-1.87-.75-2.78,0,0,.21-.4,1.76-.94a20.31,20.31,0,0,0,6-3,27.28,27.28,0,0,0,3.52-3.53l.47.26a3,3,0,0,0,4-1A18.06,18.06,0,0,1,312,135h.49c.21,2.62,2.38,3.83,6.31,6a3,3,0,0,0,2.69.12,3,3,0,0,0,1.62-1.8,20.45,20.45,0,0,0,3.91,5.08,24.67,24.67,0,0,1,2.16,2.43c1.53,2.11,1.76,4.61.56,6.37l-.35.5A9.12,9.12,0,0,0,327.29,158.44Z"/><path class="cls-1" d="M162.79,40.64,164,40l-.89-1c-2.31-2.49-5.1-3-8.29-1.46a2.26,2.26,0,0,0-1.86-1.1,2.55,2.55,0,0,0-2,1.1l-.47.56.39.61c.21.32.38.61.54.87a13.21,13.21,0,0,0,1,1.46,5.75,5.75,0,0,0,1.74,1.59,5.51,5.51,0,0,0,2.57.67,8.36,8.36,0,0,0,4.5-1.78C161.71,41.27,162.25,40.93,162.79,40.64Z"/><path class="cls-1" d="M289.54,53.94a3.05,3.05,0,0,0-3,.14l-5.35,3.44a3,3,0,0,0-1.36,2.22,3,3,0,0,0,.9,2.46l.6.58a3,3,0,0,0,2.09.84,3,3,0,0,0,2.15-.91,6.49,6.49,0,0,1,1.49-.88c1.48-.74,4.22-2.09,4.1-5.34A3,3,0,0,0,289.54,53.94Z"/><path class="cls-1" d="M301.21,110.33l-1.83.8L305,115.5l2.31-8-3.29,1.51-1.59.72Z"/><path class="cls-1" d="M84.85,61c-2,0-4.06,1.13-6.35,3.57a3,3,0,0,0,2.19,5H82.1c-.11.57-.19,1.12-.26,1.62s-.1.75-.16,1.09a3,3,0,0,0,2.24,3.47l1,.23a3.27,3.27,0,0,0,.7.08,3,3,0,0,0,2.83-2c0-.08.08-.2.14-.32l0-.09a3.09,3.09,0,0,0,1.39.49,3.05,3.05,0,0,0,2.42-.88L94.66,71A3,3,0,0,0,95,67.26a5.73,5.73,0,0,0-4.91-2.74C88.73,62.21,87,61,84.85,61ZM86,65.66H83.3A2.83,2.83,0,0,1,84.85,65,1.48,1.48,0,0,1,86,65.66Zm5.14,3.24-.75.76-.67-1A1.3,1.3,0,0,1,91.16,68.9Z"/><path class="cls-1" d="M301.52,100.17a6.34,6.34,0,0,1-.33-.62l-.46-1-2.15,1.29-.08.45c-.46,2.49-.68,4,.14,4.93.61.74,1.58.89,2.83.89.41,0,.87,0,1.4,0v-2a2.76,2.76,0,0,1-1.37-.29h0s-.05-.31.48-1.22S302,100.91,301.52,100.17Z"/></g></g></svg>