<svg xmlns="http://www.w3.org/2000/svg" viewBox="0 0 740.59 365.14"><defs><style>.cls-1{fill:#b4fcc7;}</style></defs><title>mappemonde-full_1</title><g id="Calque_2" data-name="Calque 2"><g id="Calque_1-2" data-name="Calque 1"><path class="cls-1" d="M438.31,209.57c-.29,1.25-1.22,2.94-.73,3.66a4.42,4.42,0,0,0,3.65,1.25c3.9-.6,7.73-1.6,12.37-2.62-1.92,8.58-5.71,15.29-12.26,20.58a76.62,76.62,0,0,0-10.54,9.81c-3.64,4.31-2.87,9.4-1.28,14.53,1.07,3.41,2,7.12,1.72,10.6-.15,1.85-2.68,4-4.65,5.14-5.88,3.3-6.91,4.81-6.15,11.37.31,2.65,0,4.83-3,6-1,.41-2,2.22-2.13,3.48-.74,6.54-11,16.42-17.75,16.86-3.34.22-7.32,1.83-9.8.52-2.09-1.12-2.42-5.54-3.53-8.49-3.52-9.37-7.37-18.64-10.36-28.18-.83-2.64.15-6.46,1.55-9.07,3.94-7.32,1.07-13.84-2.8-19.29-3.12-4.38-5.17-7.85-3.22-13.19,1.41-3.85-.91-5.26-4.61-5.58-1.64-.14-3.13-1.77-4.8-2.07a31.09,31.09,0,0,0-8.84-.67c-6,.69-11.9,2.64-17.85,2.61-3,0-6.46-2.7-8.87-5.06a57.36,57.36,0,0,1-9.47-11.94c-1.19-2.06-.33-5.37-.24-8.11.05-1.43,1-3,.63-4.26-3-10.1,3.16-15.84,9.71-21.65,1.64-1.45,2.36-3.94,3.51-6a28.14,28.14,0,0,1,3-5,70.55,70.55,0,0,1,6.26-5.49c3.85,1.77,8,.11,12.67-1.37a53.56,53.56,0,0,1,19-2.22c3.44.2,2.8,4.26.7,7.51l18.46,8c2.09-6.27,2.58-6.73,8.84-4.13s12.55,2.07,18.88,1.91c1.23,0,2.86-1.88,3.5-3.26a86.36,86.36,0,0,0,3.06-9.21c-4.92.34-9,1.26-12.84.65-2.37-.39-5.58-2.7-6.32-4.86-2.38-7-2-7.1-8.69-4.08l2.71,4.65-3.7,4.41a44.06,44.06,0,0,0-17.73-22.79c-2.48,3.53-.57,6.1,9.19,12.54-1.08,1.71-2.13,3.35-2.85,4.48-1.67-1.81-3.33-3.76-5.15-5.53-2.23-2.16-4.61-4.15-6.91-6.24-.36-.33-.69-1.17-.89-1.13-4.66,1-9.37,1.92-13.91,3.34-1.37.43-2.34,2.31-3.37,3.61-1.27,1.6-2.91,3.13-3.54,5a9.82,9.82,0,0,1-13.39,5.76c-1.28-.57-2.81-.57-5.09-1,0-4.47-.14-9.09.15-13.69,0-.73,2-1.83,3.1-1.9,4-.23,7.93-.09,12-.09,3.68-6.82-1.34-9.52-6.36-12,2.62-1.37,4.75-3.37,7-3.48,5.95-.31,8.37-5.09,12.22-8.17,2.43-1.94,5.64-2.93,9.26-4.72.19-2.77-5.45-8.23,2.76-9.86.18,2.21,1.43,5.36.37,6.83-2.3,3.19,1.72,1.89,1.65,3.15a53.25,53.25,0,0,0,7.27-.19c3.88-.62,7.69-1.64,11.62-2.5,1.57-8.66,1.57-8.66,7.13-6-.53-2.5-.91-4.26-1.47-6.88l11.14-1.83c0-.48-.05-1-.07-1.44H393.73c-4.59-9.13,3.92-11.33,6.87-16.16-4.24-3.07-6.13-2.43-8,1.73-.78,1.72-2.58,3.11-4.17,4.33-4.73,3.65-5.16,7-1.52,10.5-1.26,3.74-2,7.55-3.81,10.69-1.05,1.79-4,2.47-6.31,3.8L371.71,95.9A34.12,34.12,0,0,0,368,98.09c-3.43,2.64-5.59,2-7.21-2.1-1.87-4.74-1.23-8.24,3-10.66,6.39-3.71,10.9-9.15,14.84-15.21a50.63,50.63,0,0,1,3.74-4.53h-2.53c4.45-.3,5.58-6.77,11.1-5.65,2.17.44,4.81-2.39,7.36-2.7a40.54,40.54,0,0,1,12.15.13c1.29.24,1.65,2.93,4.65,3.38,5,.74,9.7,3.31,14.34,5.53,1.69.81,2.82,2.8,4.2,4.25-2.11,1.08-4.23,3.06-6.32,3-3.52,0-7-1.36-10.72-1.92,5.49.8,1.74,10.94,9.9,9.2l-2.56-2.71.4-1,6.61,1.77c.13-4.86,2.89-6.75,9.58-5.79a14.62,14.62,0,0,1-1.27-3.51,23.8,23.8,0,0,1,.63-4.49l5.69,1.21c-1.89,1.47-2.81,2.18-3.72,2.9l.17,1.27c1.57.08,3.43.76,4.66.15,4.37-2.17,8.52-4.77,13.11-7.42.4,1.89.56,2.61.71,3.32a3,3,0,0,0,1.06.12c3.48-1,6.74-3.76,10.67-1.12.33.22,1.68-.5,2.05-1.1a2.3,2.3,0,0,0-.32-2.13,33.46,33.46,0,0,0-3.67-3.11c4.12.87,7.68,1.3,11,2.42s6.53,2.93,11.24,5.11c-2.36-4.29-6.41-7.21-4.45-11,1.71-3.31,4.82-5.88,7.29-8.75,5.53,1.79,3.42,6.9,4.5,10.58.76,2.59,1.73,5.63,1,8-.88,2.9-3.42,5.3-4.83,7.33,6.13.62,8.83-3,6.08-10.07-.46-1.16.67-2.87.54-4.27a11.88,11.88,0,0,0-1.21-3.35l5.4-3.63-1.24-1.39c.13,1.78.27,3.55.42,5.47,2.16-1.93,3.75-4.51,5.44-4.59,2.71-.12,5.49,1.43,8.58,1.6A9.61,9.61,0,0,1,518,51.15c-.75-1-1.84-2.22-1.68-3.16.13-.75,1.85-1.58,3-1.75,2.93-.47,5.92-.59,8.89-.85l-.81-1.18c1.5-1.6,2.73-4.06,4.55-4.63,6.6-2.07,13.42-3.43,20.1-5.25a8.11,8.11,0,0,0,3.55-2.45c3.1-3.44,5.57-3.31,9.32-.26,1.49,1.21,4,1.25,6.09,1.59,1.29.22,2.87-.42,4,.09a65.65,65.65,0,0,1,6.69,4.15c-1.65,1.61-3.1,3.54-5,4.74-3.18,2-6.66,3.56-9.94,6.06,1.56-.33,3.3-.33,4.63-1,6.93-3.76,13.67-.61,20.5.24,3.54.44,7.14,4.21,10.83-.87.91-1.25,5.82-.07,8.65.78,1.28.38,2.22,2.57,2.91,4.12a56.78,56.78,0,0,1,2,6.17l2.1.22,2.55-3.24h15.31c-.33-1-.62-1.9-.92-2.79,6.75-3.33,11.16-2.66,12.92,2.39,3.53-3.17,6.41-3.29,10.14.37,2,2,6.33,2.08,9.63,2.14,4.25.08,8.74-1.44,10.69,4.3.22.66,1.72,1.33,2.57,1.26,5-.43,9.92-1.08,14.88-1.63a5.8,5.8,0,0,1,1.46.36l-1.61,2.11,5.3,2.63-1.06-5.14c14-.23,28.65,5.55,31.29,12.17,3.83-3.32,6.42-.44,9.22,1.75l-6.78,6.12-12.27-6c-1.11,4.66-2.74,5.5-7.69,4.23,1.58,2,3.47,4.41,4.74,6-5.49,2.5-10.14,5.06-15.09,6.75a44,44,0,0,1-12.32,2.17C687.17,94,684.89,96,683,99c-.24.39-.49,1.24-.34,1.35,4.65,3.59.23,7.44-1,9.63-2.18,4-6.61,6.86-10.38,10.47-1.81-6.37-4.47-12.9.55-18.7,3.17-3.67,7.67-6.17,11.41-9.39a43.69,43.69,0,0,0,4.34-5l-1-.94-6,4.93c-3-1-5.44-2.74-6.71-2.09-3,1.52-5.49,4.17-8.18,6.36.24.74.49,1.47.73,2.21-2.38-.59-4.74-1.29-7.15-1.72a16.7,16.7,0,0,0-4.24,0c-1.31.1-2.73.88-3.89.57-7.16-2-12,1.67-16.52,6.41a101.46,101.46,0,0,1-7.85,6.67c2.74,1.2,4.25,3.48,8.1,2.34,3-.89,4.33,2.72,3.87,6-1.3,9-6.25,15.91-12.62,22-.71.68-1.83,1.8-2.42,1.62-8.16-2.52-8.53,6.7-13.35,8.3,1.7,3.32,3.23,6.28,4.9,9.52l-6.7,2.94c-2.07-2.93,3-8.09-4-8.2.3-1.41.55-2.59,1.06-5.06l-8.26,2.55c.38-1.37.76-2.69,1.46-5.18l-9.06,5.58c1.4,5.65,6.68,1.52,9.71,3.62l-6.43,4.58c1.46,2.86,3.46,5.26,3.89,7.91,1.64,10.12-4.64,18.69-14.73,21-1.74.4-3.32,1.44-5,2s-3.21,2.71-5.6.46c-.53-.5-4.27,1.32-5.42,2.89-.86,1.2-.49,4,.31,5.53,1.31,2.55,4,4.46,5.07,7.06,1.47,3.43.51,6.45-3.52,8-1.61.61-2.91,2-4,2.83l-10.44-9.46c-3.19,8.65-2.6,9.55,3.35,15.53,2.27,2.29,2.93,6.19,3.41,10.14-1.53-1.08-3.9-1.85-4.45-3.3-2.12-5.64-6.85-10.15-6.36-17.05.29-4-1.54-8.25-2.45-12.58l-4,1.79-6.74-13.62c-9.69,1.19-13.92,9.88-20.94,14.53-.89.59-1,2.67-1.09,4.07-.13,4.88-1.57,9-6.91,12.79-3.42-9.9-6.67-19.27-9.92-28.66-2.16,1.5-4,1.12-5.94-2.66s-5.21-7.4-10.81-6.65a30.78,30.78,0,0,1-9.91-.18c-4.18-.81-7.83-3.3-12.32-3.77-2.09-.21-3.83-3.25-5.87-4.82a33.24,33.24,0,0,0-4.25-2.4l-1.58,1.76,8.87,12.77,8.56-4-2.84,1.8,10.19,5.76c-7.83,12.42-20.37,16.52-33.4,19.83-1.84-4.3-3.53-8.69-5.57-12.9-1-2-2.76-3.65-4-5.59-2.8-4.57-5.39-9.28-8.29-13.78-.42-.66-2.09-.52-4-.91,3,6.12,5.59,11.23,8.1,16.37,1.84,3.76,3.09,8,5.59,11.21C432.09,206.5,435.55,207.77,438.31,209.57ZM413.22,129.8c-2.65,3.93-4.64,6.34-6,9.06-.79,1.61-.56,3.72-.78,5.6,2.26.26,4.53.7,6.8.75,3.31.08,6.63-.27,9.94-.16,2.76.08,5.51.75,8.27.76a3.26,3.26,0,0,0,2.41-2c.14-.81-.77-2.14-1.58-2.74-2.37-1.75-4.93-3.25-7.39-4.83l2.15-4.62-1.34-1.26c-1.72,1.35-3.5,2.62-5.12,4.09-.57.51-.72,1.49-1.06,2.25-1-.48-2.33-.73-3-1.51C415.43,134,414.77,132.41,413.22,129.8Zm48.26,16.88a76.5,76.5,0,0,1-6.61-5.51c-2.09-2.18-3.16-4.51,1.1-5.78.83-.25,1.42-1.33,2.12-2-.94-.69-2.2-2.16-2.78-1.93-3.26,1.31-6.9,2.5-9.25,4.88-.93.94.62,5.14,1.95,7.3,1.63,2.65,3.55,4.73,1.3,8-.36.52.56,2.78,1.31,3a67,67,0,0,0,8.13,1.84c-.34-2.55-.69-5.11-1-7.66,0-.32-.06-.64-.12-1.25ZM573,111.2l-10.69,6.87,1.21,1.17C566.72,115.89,573.11,115.47,573,111.2Z"/><path class="cls-1" d="M125.54,64.31c1.6.49,3.38.68,4.76,1.52,5.42,3.31,11.92,3,15.09-1.08l-2.54-1.06c.94-1.1,1.83-2.12,2.76-3.2l5.14,2.66-2.3,6,1.27.43,4.47-5.07c-1.13-1-2.25-2.48-3.73-3.28-3-1.64-2-3.86-1.32-6.15.49-1.74,1.49-3.61,1.23-5.25-.79-5,.34-6.42,5.39-5.85,1.45.16,2.89.48,5.29.89a46.29,46.29,0,0,1-4.14,4.51,27.25,27.25,0,0,1-4.07,2.45l8.28,12.58c7.56-5.37,2.21,6,6.42,5.29a26.27,26.27,0,0,0,2.77-3.65,40,40,0,0,0,1.91-5.43l6.73,2.1-.51,8.2c-1.16.46-3.4,2.25-5.24,1.9-3.43-.65-4.75,1.55-5.3,3.51-1.57,5.63-6.36,4.51-10.37,5.81l1.8,1.27c-2.17,2.5-4.72,4.78-6.43,7.58-1.48,2.42-2.53,4.75,1.5,7.25,6.78,4.21,14.68,8.79,21.78,10.54,1.82,4,3.42,7.6,5.1,11.35,4.46-3.06,4.46-3.06,2.43-9.92,7.28-5.25,7.62-7.06,2.78-11.45.22-4.33.41-8.19.62-12.36,6.06-1.41,11.1,1.81,16.16,4.84.38.22.19,1.24.52,1.72,1.4,2.05,2.89,4,4.36,6,1.79-1.69,3.6-3.37,5.39-5.07.24-.22.42-.51,1.38-1.7,1.94,4.29,3.57,8.19,5.46,12a10.59,10.59,0,0,0,3,3.62c2.45,1.84,5.11,3.43,7.72,5.07,3,1.87,1.79,4.6,0,5.41a42,42,0,0,1-12.92,3.62c-4.7.4-9.08.63-12.47,4.78l8.86-1.83c-1.38,7.81,0,9.54,8.37,9.87l-11,4.86-.79-1.16,4-4.48c-4.83,2.18-10.38,2.92-11.64,5.64-2.63,5.69-9.21,7-11.5,12.51-.25.6-1.53.77-2.84,1.37l2,5.56c-2.75,2.21-5.55,4.66-8.56,6.83-3.24,2.33-3.77,5.06-2.4,8.7a60.33,60.33,0,0,1,1.9,8.07l-1.87.69c-1-1.53-2.43-2.94-2.9-4.62-1-3.45-1.19-6.64-6.43-6.5-3.19.08-6.38-2.13-9.13,1.36-.37.46-1.86.23-2.77,0-8.32-1.69-11.89.72-12.44,9.17-.23,3.58-.28,7.77,1.32,10.77,3.46,6.52,8.87,6,13.06-.14,1.08-1.59,4-1.94,7.32-3.42-1.52,5.52-2.57,9.35-3.73,13.54,1,0,1.57,0,2.16,0,8.57-.31,8.57-.31,8,8.16-.29,4.42,2.82,6.64,7.1,5.79,2.1-.42,4.48.56,6.67.9l11.65-8.47L199,217.15c2.56-5.28,3.3-5.49,8.36-2.75a9.9,9.9,0,0,0,4.28.86c3.22.13,6.44,0,9.67,0,.63,3.06,7.85,9,11.87,9.1,8.38.27,9.19,4.45,11.64,10.79.58,1.51,2.54,2.79,4.15,3.5,2,.84,4.28.78,6.34,1.45s4.06,2.76,5.79,2.46c5.73-1,8.89,3.88,13.56,5.22,2.92.84,2.65,7.33-.43,10.09-4.07,3.62-6.69,7.42-6.72,13.39,0,3.87-2.27,7.89-4.16,11.51-.7,1.34-3.14,2.18-4.91,2.48-6.27,1.06-9.9,4.5-10.82,10.61a6.07,6.07,0,0,1-1.22,2.53c-2.49,3.41-5.18,6.7-7.55,10.19-2.89,4.26-6.62,4.51-11.94,2.05,2,3.37,5.48,6.09,2,8.72-2.45,1.87-5.88,2.47-9.75,4l-1,3.74h-6c1.44,1.78,2.31,2.83,3.32,4.07-2.16,2.45-4.85,5.06-6.87,8.12-.47.7,1.38,2.94,2.3,4.74-1.83,3.05-5,6.45-5.91,10.37-.95,4.27,2.29,7.58,6.63,9.26l-.32,1.48-12.52-.76c1.79-2.49,2.65-3.68,3.64-5.07l-6.41,2.32c-.12-1.95-.24-3.9-.38-6.25-3.07-2-4.36-6.72-2.59-10.45.36-.75-.11-1.9-.19-2.87a15.29,15.29,0,0,1-.19-2.38c6.56-1.43,2.36-7,4.71-9.95l-1.2-.48c-.45,1.16-.89,2.33-1.59,4.19-.46-1.05-.8-1.44-.74-1.76,2.89-16.34,5.85-32.66,8.72-49,.82-4.63-.19-8.79-4.89-10.76-4.95-2.06-7.7-5.79-10-10.37-2.07-4.09-4.9-7.8-7.15-11.81-.73-1.32-.67-3.08-1.18-5.71l4.2,2.54c1.8-1.53,3.44-2.79,4.91-4.21a45.4,45.4,0,0,0,3.14-3.63c-1.15-.95-2.25-2-3.47-2.83-1.07-.75-2.26-1.33-3.81-2.21,5.56-5.18,3.59-10.26-1-17.19L180,221c-3.91-1.85-8.7-3.92-11.41-9-.77-1.45-3-2.19-4.66-3.08-2.87-1.55-5.8-3-8.74-4.44-1.17-.57-2.54-1.6-3.6-1.38-7.29,1.54-12.47-3.48-18.5-5.75-2.14-.8-4-2.18-3.18-5.33.29-1.1-.78-2.88-1.7-3.93-3.82-4.3-7.85-8.4-11.72-12.65a25.13,25.13,0,0,1-1.89-3.14c-.87-1.32-1.82-2.59-2.74-3.88l-1.65,1,9,14.88-1.45,1c-2-2.78-3.83-5.81-6.18-8.31-4.06-4.3-4.46-10.87-10.25-14.28-7.64-4.51-10.76-12.24-10.75-20.89,0-12.56.22-12.56-8.14-20.8l3.57.79c.67-.94-10.58-12.67-11.94-12.57-.62,0-1.24.07-2.5.15l1.59-4-3.45-.41,1.92-3.78C70,102.36,69.1,103,68,103.82l-2.7-3L68.4,100c0-.43,0-.73-.05-.74-8.94-2.74-17.89-5.45-25.94-7.9l-8.32,5.94L33.25,91C28.9,99,23.47,104.5,15,107.69l7.09-8.51L21.12,98H12.31l-.59-3.53C6.33,96.94,6,91.76,3,88.32c2.8-1.71,5.5-3.22,8-5a8.16,8.16,0,0,0,3-4.14c-5.44,1.44-10,2-14-4.6l13.67-1.2-11-7.89c6.58-3.17,12.45-6.5,18.72-8.78,2.73-1,6.28-.1,9.39.39,5.63.87,11.2,2,16.78,3.14,4.8,1,9.55,2.58,14.38,2.86,3.74.22,7.55-1.27,11.36-1.83,2.25-.33,4.59-.14,6.81-.59,1.25-.25,2.33-1.32,3.81-2.21l2.3,2.9c4.1,0,7.78-.35,11.37.09a65,65,0,0,1,11,2.64c1,.31,1.7,1.68,2.1,3.16,4.3,2.82,10.68-2.53,14.43,4.17,1.3-2.68-3.56-5.32.6-7.32Zm47.89,70.53,3.75,5.63,4.52-4.6c-2.21-3.27-5.65-3.85-8.27-1-2,.15-5.24-.35-5.69.56-1.24,2.49-1.31,5.57-1.84,8.42l1.91.46c.41-1.17,1.17-2.34,1.16-3.5C168.93,137.56,170.15,135.49,173.43,134.84Zm-1.08-3.52c-3.47-7-7.72-7-14.33,0ZM93.75,78.14l11.65-4.37C99.55,71.84,95.07,70.63,93.75,78.14Zm14,12.59.58,1.23L120.8,86l-10.92.75Z"/><path class="cls-1" d="M210.7,29.81l-14-2.74c5.65-5.05,13.22-2.79,17.91-8.42l-5.26-1.31-.36-1.44,12.57-4.47c1.27-4.65,6.72-2.74,10.24-4.39,2.93-1.36,5.79-1.61,6.52,2.91.27-1,.54-2.1.84-3.25L245,9.07l-1.54-4.13,12.75,4.5-4.69-3.5c4.26-6,10.47-3.41,16-3.87,3-.25,6-1.5,9-1.82,9.35-1,18.27.9,28.36,5.34l-14,2.35-.1.49L303.47,9l-2.8,4.27c7.37-2.16,14.54-5.87,24.08-2.94-2.24,1.14-3.3,1.72-4.39,2.23-4,1.89-8,3.75-11.84,5.57h2.85l-7.73,8.77L312,31.62l-9.11,1.5,8,4.7L305.32,40l3.92,3-4.46.46,1.92,3.17-9.57.71.09,1.61h6.23l.12,1.51-3.85.56,4.65,6L303,58.72l-6.46-3.09c-.42.87-.95,2-1.44,3l6.37,1.53.35,1.3c-5.17,1.58-10.4,3-15.47,4.82-2.44.89-4.57,2.62-6.87,3.92-2.62,1.49-5.11,3.58-7.93,4.21-3.54.79-6,1.73-7.12,5.62a77.4,77.4,0,0,1-4.62,11.8c-.46,1-2.35,2.08-3.29,1.87-8-1.89-12.63-7.7-15.78-14.84-1.08-2.44-1.42-5.21-2.53-7.64-1.58-3.48.21-4.74,2.94-6.22,1.06-.57,1.28-2.7,1.88-4.13-1-.11-2.39-.68-2.84-.25-2.32,2.23-2.24,2.32-6.5-.61l8.21-3.34-7.81-3.85C233,41.62,228.85,36.58,218.58,35a12.11,12.11,0,0,0-2-.27c-3.53,0-12.11-1.67-15.52-3.37Z"/><path class="cls-1" d="M612.81,268.59c4.84-7.32,4.84-7.32,15.57-5.66-1.9,6-1.9,6,8.69,11.91,1.11-5.08,2.15-9.79,3.38-15.42,2.66,4.87,5.33,8.73,7,13,2.53,6.6,8.4,10.39,12.34,15.79,4.28,5.87,5.35,13.6,1.24,19.65-1.57,2.3-3.7,4.88-3.77,7.39-.18,5.88-5.43,5-8.35,6.88-1.67,1.06-4.82.06-7.24-.4-4-.75-10.47-8.37-11-12.62L627.33,312c-2.68-2.14-4.78-4.79-7.47-5.69a16.59,16.59,0,0,0-9,.08c-7,1.86-13.9,4.31-20.84,6.49-3.89,1.22-5.6-.71-5.34-4.88.17-2.66-.79-5.42-1.44-8.09-.85-3.5-2.1-6.91-2.8-10.43-.81-4.13,2-6.85,7.38-8.75a35.68,35.68,0,0,0,10.34-5.12c3.59-2.83,6.4-6.65,9.48-10Z"/><path class="cls-1" d="M162.87,34.3l3.75-4.25-.79-1.13.56-1.11,5.93,2.48.6-1-6.68-4.18,8-1.82c-2.29-4-5.1-1.24-7.36.42-5.59,4.09-7.39,4.2-13.07-.34l1.39-1.47-6.15-2.72,4.64-8.62,14.79,8.45c.2-.58.74-2.09,1.14-3.25l-11.75-6C179.58,5,200-1.63,222.56,6.89l-12.14,3.77,4.47.52L191,21.94l3.85,1.53c-5.07,3.87-9.33,6.9-15.7,7l7.37,1.79.12,1.5c-2.41.2-4.82.56-7.23.57-5.56,0-11.11-.12-16.67-.2Z"/><path class="cls-1" d="M180.53,46.93c.17,1.46.34,2.92.55,4.76a51.75,51.75,0,0,1,5.6-1.47,8.17,8.17,0,0,1,4.35.15,160.7,160.7,0,0,1,14.32,7.32c2.54,1.49,5,3.66,2.26,7l13.88,7-5.89,5.62c-2.22-1.71-4.16-3.19-6.25-4.81-2.34,2.92-1,4.11,1.37,5.56,1.65,1,2.77,2.92,4.13,4.44l-.63,1.59-7-1.24,3.83,4.44-1,1.44c-3.75-2.39-7.41-4.94-11.3-7.08a20.38,20.38,0,0,0-6.42-1.9c-1.85-.3-3.79-.06-6.88-.06,1.48-1.6,2.3-3.06,2.83-3,4.24.78,6-1.73,8.13-4.8,1.88-2.75,1.63-4.41-.81-6.13-3.42-2.42-6.9-4.77-10.4-7.19-3.52,3.18-17.84,1.63-22.25-2l2.35-.69c.71-10.43.71-10.43,5.82-10.52-3.35,5-3.25,6.44-.06,8.41.17-1.89-.41-5.41.72-6.09,2.45-1.49,5.68-4.2,8.82-.63Z"/><path class="cls-1" d="M125.72,64.14c-1.32.08-2.79-.18-3.93.31-6.42,2.78-10.91-1.82-16.23-3.26l.1-1.46,10.54-1c-5.91-2.2-15.54,1.95-13.22-9.52-2.5,2-4.62,4.93-7.3,5.62-2.31.59-5.25-1.33-7.78-2.1,1.22-3.45,2.22-6.24,3.5-9.85C97,42.7,103.05,42.06,109,46.4c2.91,2.14,6.8,4,11.3,2.91,1.19-.29,3.12,2.41,5.08,4-.37-1.77-.68-3.27-1.1-5.33l7.86-3.29c-4,9.08.64,12.52,8.43,15.21l-6,1.31,2.82,1.65-.29,1.48c-2.59-.32-5.17-.78-7.77-.9a14.25,14.25,0,0,0-3.75.84Z"/><path class="cls-1" d="M617.69,239.29c5.75-3.77,6,1.48,7.44,5.05,8.4-7.15,15.22-1.09,21.52,2.83,4.17,2.6,6.82,7.64,10.15,11.58l-.74,1.11a61.83,61.83,0,0,1-6.7-4.06c-2.38-1.87-4.29-3.79-7-.37-.62.77-2.73.81-4,.53a31.81,31.81,0,0,1-5-1.84,42,42,0,0,0-2.3-5.89c-.38-.68-1.73-.87-2.67-1.18C621.61,244.85,621.6,244.85,617.69,239.29Z"/><path class="cls-1" d="M591,234c-1.53,3-2.81,5.64-4.31,8.19-.67,1.14-1.71,2.74-2.73,2.86-5.41.65-10.34-2.79-12.36-8.12-.85-2.24-1.2-3.66,2.2-3.76,1.87-.06,3.91-1.38,5.5-2.62,2.87-2.23,5.46-4.83,8.19-7.29l4.61,2.38C588.3,230.12,588.3,230.12,591,234Z"/><path class="cls-1" d="M451,262.54c-.41,3-.56,5.79-1.2,8.46-1.2,5-2.74,9.92-4,14.9-.79,3-2.38,6.12-5.57,4.31-1.88-1.07-2.69-4.85-3.07-7.54s.26-5.32.8-7.92c.34-1.64.91-3.64,2.1-4.62C443,267.64,446.39,265.64,451,262.54Z"/><path class="cls-1" d="M491.73,34.33c-2.6.87-5.18,1.82-7.8,2.61-6.23,1.87-12.22,4.1-16.63,9.27-4.69,5.47-4.74,5.87-.87,12.33l-10.62-4.33c6.78-16.11,20.11-20.47,35.33-21.41Z"/><path class="cls-1" d="M352.35,116.52c-1.33,7.49-8.83,2.84-12.39,5.73a45.66,45.66,0,0,1-.76-4.69c-.05-.9,0-2.33.59-2.67,4.84-3,2.15-4.19-.86-6.44-2-1.46-4.08-4.16-1.61-7.5,2-2.68,1.65-2.78,4.23-.33.66.62,2.08.44,3.73.73-3.4,3.65-.12,5.54,1.42,7.78C348.36,111.55,350.26,113.8,352.35,116.52Z"/><path class="cls-1" d="M371.78,18.92l10.3,1.57c0,.14-.13-.86-.5-3.36l16.89,10.69c-2.82,3-2.82,3-8.91-3.86-2.23,3.09-4.38,6.09-7.1,9.88l-5.12-6.24,4.86-2.09C377.66,25.67,372.55,27.33,371.78,18.92Z"/><path class="cls-1" d="M162.71,34.13c-1.42,3.21,1,3.69,3,3.74,2.95.06,5.91-.62,8.87-.61,2.75,0,5.51.47,8.27.73l.56,1.52c-1.24.83-2.44,2.31-3.71,2.37-6.13.26-12.28.26-18.41.07-1.31,0-3.71-1.21-3.7-1.85.05-5-3.49-5.2-6.9-5.87a8.67,8.67,0,0,1-2.37-1.37l.39-1.25,14.12,2.68Z"/><path class="cls-1" d="M566.08,243c-.41,1.47-1,3.51-1.74,6.32-11.2-3.76-12.1-16.75-20.55-23,1,0,2.35-.42,2.94.07,4.57,3.78,9,7.75,13.48,11.65C562,239.57,563.75,241,566.08,243Z"/><path class="cls-1" d="M321.3,77.51c-5.21,2.74-9.21,7.4-15.5,4.13A9.72,9.72,0,0,1,303,79a53.33,53.33,0,0,1-2.9-4.49c1.54-1.85,3.58-2.49,5.33,1.42C311.57,72.34,316.77,72.63,321.3,77.51Z"/><path class="cls-1" d="M620.41,165.33l2.61-3.1-4.79,1.2c-.12-.23-.24-.46-.35-.7,1.25-.87,2.66-2.66,3.72-2.48,4.95.88,7.38-3.61,11.28-4.95,1.46-.5,2.09-3.46,3.06-5.33.64-1.25,1.21-2.54,2.06-4.35,3.47,6.72.13,14.93-5.92,16.39-2,.48-4.25.1-6.13.81s-3.18,2.26-4.76,3.45Z"/><path class="cls-1" d="M129.17,37.83c0,.13-.29,1.82-.87,2-5.36,1.19-10.78,2.12-16.18,3.13l-.25-1.21,3.78-1.33-.09-.6h-9.85c4.3-11,10.1-1.72,15.48-1.64a18.05,18.05,0,0,1-.45-2.7,9.31,9.31,0,0,1,.44-2,10.74,10.74,0,0,1,2.43.75C125.15,35,126.59,36.09,129.17,37.83Z"/><path class="cls-1" d="M553,19.35c-.42,1.49-.85,3-1.49,5.25l-14.27-5.39c2.24-2.38,3.75-4.68,5.88-6,.95-.57,3.45.52,4.66,1.54C549.2,16,550,18,551.12,19.6Z"/><path class="cls-1" d="M690.91,339.17c1.7-1.46,3.43-2.89,5.1-4.38s3.43-3.44,5.34-4.9a31.19,31.19,0,0,1,4.65-2.46l1.19,1.63c-3.17,4.16-6.07,8.58-9.67,12.32-.94,1-4-.09-6.14-.23C691.23,340.49,691.07,339.83,690.91,339.17Z"/><path class="cls-1" d="M136.15,48.46l4.93.77-2.75-4.11h8.21c-.43,1-.87,2-1.39,3.25h5l-6.27,7.28-8-6.19Z"/><path class="cls-1" d="M404.94,17.09c-5.9,5.94-13.86,5.61-19-.84Z"/><path class="cls-1" d="M646.85,39.16a15.82,15.82,0,0,1-3.51,1.41,59.43,59.43,0,0,1-9.49.83c-1.08,0-2.13-1.54-3.19-2.37,1.22-1.19,2.49-3.43,3.64-3.37,4,.21,8,1.22,11.94,1.93Z"/><path class="cls-1" d="M231.49,119c-1.55,6.85,8.47,6,7.06,11.69l-12.76-2.08Z"/><path class="cls-1" d="M716.83,319.53l-7.62,10.78c-1.32-6.42-2.38-11.57-3.47-16.83C709.1,314.88,709.37,322.18,716.83,319.53Z"/><path class="cls-1" d="M328.29,118.24c2.58-2.17-1.77-6.89,3-7.89a30.25,30.25,0,0,0,4.76-1.86,21.49,21.49,0,0,0-.1,4.08C337,119.25,331.66,117.26,328.29,118.24Z"/><path class="cls-1" d="M132.19,32.74c3,2.51,5.68,2.48,9,.65,1.61-.88,5.76,0,4.8,4-.29,1.22-2.62,3.15-3.27,2.89-3.9-1.56-7.58-3.66-11.34-5.57Z"/><path class="cls-1" d="M592.56,248.14c.41-3.48.51-7,1.32-10.42,1.54-6.47,6.67-.63,8.37-2.12-1.7.46-4.68,1.24-7.62,2.14a13.78,13.78,0,0,0,.28,2.26l4.46-1.37c-.29,2.63-.57,5.25-.86,7.87l-1,1.05c-.7-1.35-1.39-2.71-2.69-5.22-.16,3-.24,4.51-.32,6Z"/><path class="cls-1" d="M167.82,82.83c1.06-3.24,1.77-5.36,2.68-8.12L182,81.82Z"/><path class="cls-1" d="M645.17,125.33c-3.85,1.5-4.22,2.9-2,7.44-2.67-.8-2.63-.8-2.33-9.07.13-3.5,0-7,0-10.51l1.65-.24c.31,1.92.54,3.86,1,5.75C643.92,120.94,644.58,123.14,645.17,125.33Z"/><path class="cls-1" d="M565.46,249.2l18.35,4.34c-.15.66-.29,1.31-.44,2l-18.58-3.75Z"/><path class="cls-1" d="M640.6,136.39l8.54,4.25L636,144.9Z"/><path class="cls-1" d="M94,34.84l13.21-5.7,1,1.2c-.6,1.17-1,3.1-1.86,3.38-3.85,1.25-7.86,2-11.82,3Z"/><path class="cls-1" d="M564.45,25.68l-11.73,2.17C555.5,20.54,557,20.16,564.45,25.68Z"/><path class="cls-1" d="M142.5,27.89l-10.3-2.44,1.58-1.21-4.31-1.84A9.78,9.78,0,0,1,142.5,27.89Z"/><path class="cls-1" d="M175.12,188.67c6.78-3.23,11.92,3.43,18.43,4.25l-.6,2.16Z"/><path class="cls-1" d="M597.19,197.9c.62,1.41,2.16,3.35,1.7,4.13-2,3.53-2,5.69,3.39,6-7.91.38-8.31-.27-6.67-9.21Z"/><path class="cls-1" d="M605.61,225.61l-6.32-4.87,3.1-1.36,5.79-2.65Z"/><path class="cls-1" d="M644.65,328l7.62-.4c1.13,3.08-.15,5.7-2.93,6.1C648.19,333.89,646.54,330.43,644.65,328Z"/><path class="cls-1" d="M195.21,199.18l2.36-4.67,8.33,1.83-.07,1.5Z"/><path class="cls-1" d="M180.68,47.11c3.27-3.18,5.86-.71,9.85,1.12-4.44,1.18-7.5,2-10-1.3Z"/></g></g></svg>