<svg height="512pt" viewBox="-34 0 512 512" width="512pt" xmlns="http://www.w3.org/2000/svg"><path d="m435.300781 281.601562v59.730469c-.066406 9.398438-7.667969 17-17.066406 17.066407-4.417969.03125-8.664063-1.722657-11.773437-4.863282-3.253907-3.035156-5.160157-7.242187-5.292969-11.691406v50.691406h-68.265625v-51.203125c-.027344 9.414063-7.652344 17.039063-17.066406 17.066407-2.265626.027343-4.503907-.4375-6.570313-1.363282-1.960937-.789062-3.734375-1.984375-5.207031-3.5-.085938 0-.171875-.085937-.253906-.167968-3.242188-3.164063-5.058594-7.507813-5.035157-12.035157v-59.730469c-.003906-9.054687 3.59375-17.738281 9.992188-24.140624 6.402343-6.402344 15.085937-9.996094 24.140625-9.996094h68.265625c9.054687 0 17.738281 3.59375 24.140625 9.996094 6.402344 6.402343 9.996094 15.085937 9.992187 24.140624zm0 0" fill="#cad9fc"/><path d="m411.664062 281.601562v59.730469c.023438 4.527344-1.792968 8.871094-5.035156 12.035157l-.167968.167968c-2.417969 12.902344-4.183594 25.917969-5.292969 39h-68.265625v-51.203125c-.027344 9.414063-7.652344 17.039063-17.066406 17.066407-2.265626.027343-4.503907-.4375-6.570313-1.363282v-15.703125c.019531 4.613281-1.863281 9.027344-5.207031 12.203125-.085938 0-.171875-.085937-.253906-.167968-3.242188-3.164063-5.058594-7.507813-5.035157-12.035157v-59.730469c-.003906-9.054687 3.59375-17.738281 9.992188-24.140624 6.402343-6.402344 15.085937-9.996094 24.140625-9.996094h44.628906c9.054688 0 17.738281 3.59375 24.140625 9.996094 6.398437 6.402343 9.996094 15.085937 9.992187 24.140624zm0 0" fill="#e8edfc"/><path d="m17.167969 8.535156h187.734375c4.710937 0 8.53125 3.820313 8.53125 8.53125v477.867188c0 4.710937-3.820313 8.53125-8.53125 8.53125h-187.734375c-4.710938 0-8.53125-3.820313-8.53125-8.53125v-477.867188c0-4.710937 3.820312-8.53125 8.53125-8.53125zm0 0" fill="#e8edfc"/><path d="m332.902344 392.535156h34.132812v93.863282c0 9.425781-7.640625 17.066406-17.066406 17.066406s-17.066406-7.640625-17.066406-17.066406zm0 0" fill="#e8edfc"/><path d="m367.035156 392.535156h34.132813v93.863282c0 9.425781-7.640625 17.066406-17.066407 17.066406-9.425781 0-17.066406-7.640625-17.066406-17.066406zm0 0" fill="#cad9fc"/><path d="m401.167969 187.734375c.003906 9.050781-3.59375 17.734375-9.992188 24.136719-6.402343 6.402344-15.085937 10-24.140625 9.996094-4.019531 0-8.011718-.722657-11.777344-2.132813-13.425781-4.921875-22.355468-17.699219-22.355468-32s8.929687-27.082031 22.355468-32c3.765626-1.414063 7.757813-2.136719 11.777344-2.132813 9.054688-.003906 17.738282 3.589844 24.140625 9.992188 6.398438 6.402344 9.996094 15.085938 9.992188 24.140625zm0 0" fill="#cad9fc"/><path d="m377.53125 187.734375c-.003906 14.273437-8.886719 27.039063-22.273438 32-13.425781-4.921875-22.355468-17.699219-22.355468-32s8.929687-27.082031 22.355468-32c13.386719 4.960937 22.269532 17.722656 22.273438 32zm0 0" fill="#e8edfc"/><path d="m332.902344 366.933594h68.265625v25.601562h-68.265625zm0 0" fill="#cad9fc"/><path d="m17.167969 503.464844h25.601562c-4.707031-.011719-8.519531-3.824219-8.535156-8.53125v-477.867188c.015625-4.707031 3.828125-8.519531 8.535156-8.53125h-25.601562c-4.707031.011719-8.519531 3.824219-8.53125 8.53125v477.867188c.011719 4.707031 3.824219 8.519531 8.53125 8.53125zm0 0" fill="#fff"/><path d="m17.167969 17.066406v477.867188h-17.066407v-477.867188zm0 0" fill="#fff"/><g fill="#428dff"><path d="m8.636719 59.734375c4.707031-.015625 8.519531-3.828125 8.53125-8.535156v-34.132813h-17.066407v34.132813c.015626 4.707031 3.828126 8.519531 8.535157 8.535156zm0 0"/><path d="m.101562 494.933594h17.066407v-375.46875c0-4.710938-3.820313-8.53125-8.53125-8.53125-4.714844 0-8.535157 3.820312-8.535157 8.53125zm0 0"/><path d="m17.167969 85.332031c-.03125-2.257812-.917969-4.421875-2.472657-6.058593l-1.28125-1.023438c-.476562-.320312-.992187-.582031-1.535156-.765625-.484375-.25-1.003906-.421875-1.535156-.515625-.566406-.09375-1.136719-.152344-1.707031-.167969-2.261719.03125-4.425781.914063-6.058594 2.472657-2.074219 1.996093-2.980469 4.910156-2.410156 7.730468.570312 2.816406 2.539062 5.148438 5.226562 6.179688 1.023438.4375 2.125.667968 3.242188.683594 2.269531.023437 4.453125-.867188 6.058593-2.472657 1.605469-1.605469 2.496094-3.792969 2.472657-6.0625zm0 0"/><path d="m204.902344 512h-187.734375c-9.421875-.011719-17.054688-7.644531-17.066407-17.066406 0-4.714844 3.820313-8.535156 8.535157-8.535156 4.710937 0 8.53125 3.820312 8.53125 8.535156h187.734375v-477.867188h-187.734375c0 4.714844-3.820313 8.535156-8.53125 8.535156-4.714844 0-8.535157-3.820312-8.535157-8.535156.011719-9.421875 7.644532-17.0546872 17.066407-17.066406h187.734375c9.421875.0117188 17.054687 7.644531 17.066406 17.066406v477.867188c-.011719 9.421875-7.644531 17.054687-17.066406 17.066406zm0 0"/><path d="m401.167969 401.066406h-68.265625c-4.714844 0-8.535156-3.820312-8.535156-8.53125 0-4.714844 3.820312-8.535156 8.535156-8.535156h68.265625c4.714843 0 8.535156 3.820312 8.535156 8.535156 0 4.710938-3.820313 8.53125-8.535156 8.53125zm0 0"/><path d="m401.167969 256h-68.265625c-4.714844 0-8.535156-3.820312-8.535156-8.535156 0-4.710938 3.820312-8.53125 8.535156-8.53125h68.265625c4.714843 0 8.535156 3.820312 8.535156 8.53125 0 4.714844-3.820313 8.535156-8.535156 8.535156zm0 0"/><path d="m349.96875 512c-14.132812-.015625-25.585938-11.46875-25.601562-25.601562v-93.863282c0-4.714844 3.820312-8.535156 8.535156-8.535156h34.132812c4.714844 0 8.535156 3.820312 8.535156 8.535156v93.863282c-.015624 14.132812-11.46875 25.585937-25.601562 25.601562zm-8.535156-110.933594v85.332032c0 4.714843 3.820312 8.535156 8.535156 8.535156 4.710938 0 8.53125-3.820313 8.53125-8.535156v-85.332032zm0 0"/><path d="m315.835938 366.933594c-14.132813-.015625-25.585938-11.46875-25.601563-25.601563v-59.730469c.027344-23.554687 19.113281-42.640624 42.667969-42.667968 4.710937 0 8.53125 3.820312 8.53125 8.53125 0 4.714844-3.820313 8.535156-8.53125 8.535156-14.132813.015625-25.585938 11.46875-25.601563 25.601562v59.730469c0 4.714844 3.820313 8.535157 8.535157 8.535157 4.710937 0 8.53125-3.820313 8.53125-8.535157v-42.664062c0-4.714844 3.820312-8.535157 8.535156-8.535157 4.710937 0 8.53125 3.820313 8.53125 8.535157v42.664062c-.015625 14.132813-11.464844 25.585938-25.597656 25.601563zm0 0"/><path d="m418.234375 366.933594c-14.132813-.015625-25.582031-11.46875-25.597656-25.601563v-42.664062c0-4.714844 3.820312-8.535157 8.53125-8.535157 4.714843 0 8.535156 3.820313 8.535156 8.535157v42.664062c0 4.714844 3.820313 8.535157 8.53125 8.535157 4.714844 0 8.535156-3.820313 8.535156-8.535157v-59.730469c-.015625-14.132812-11.46875-25.585937-25.601562-25.601562-4.710938 0-8.53125-3.820312-8.53125-8.535156 0-4.710938 3.820312-8.53125 8.53125-8.53125 23.554687.027344 42.640625 19.113281 42.667969 42.667968v59.730469c-.015626 14.132813-11.46875 25.585938-25.601563 25.601563zm0 0"/><path d="m384.101562 512c-14.132812-.015625-25.585937-11.46875-25.601562-25.601562v-93.863282c0-4.714844 3.824219-8.535156 8.535156-8.535156h34.132813c4.714843 0 8.535156 3.820312 8.535156 8.535156v93.863282c-.015625 14.132812-11.46875 25.585937-25.601563 25.601562zm-8.53125-110.933594v85.332032c0 4.714843 3.820313 8.535156 8.53125 8.535156 4.714844 0 8.535157-3.820313 8.535157-8.535156v-85.332032zm0 0"/><path d="m367.035156 230.398438c-23.5625 0-42.667968-19.101563-42.667968-42.664063 0-23.566406 19.105468-42.667969 42.667968-42.667969s42.667969 19.101563 42.667969 42.667969c-.027344 23.550781-19.113281 42.636719-42.667969 42.664063zm0-68.265626c-10.355468 0-19.6875 6.238282-23.652344 15.804688-3.960937 9.566406-1.769531 20.578125 5.550782 27.898438 7.320312 7.320312 18.332031 9.511718 27.898437 5.546874 9.566407-3.960937 15.804688-13.296874 15.804688-23.648437-.015625-14.132813-11.46875-25.585937-25.601563-25.601563zm0 0"/><path d="m332.902344 401.066406c-4.714844 0-8.535156-3.820312-8.535156-8.53125v-59.734375c0-4.714843 3.820312-8.535156 8.535156-8.535156 4.710937 0 8.53125 3.820313 8.53125 8.535156v59.734375c0 4.710938-3.820313 8.53125-8.53125 8.53125zm0 0"/><path d="m401.167969 401.066406c-4.710938 0-8.53125-3.820312-8.53125-8.53125v-68.269531c0-4.710937 3.820312-8.53125 8.53125-8.53125 4.714843 0 8.535156 3.820313 8.535156 8.53125v68.269531c0 4.710938-3.820313 8.53125-8.535156 8.53125zm0 0"/><path d="m213.433594 469.332031h-128c-4.710938 0-8.53125-3.820312-8.53125-8.53125 0-4.714843 3.820312-8.535156 8.53125-8.535156h128c4.714844 0 8.535156 3.820313 8.535156 8.535156 0 4.710938-3.820312 8.53125-8.535156 8.53125zm0 0"/><path d="m213.433594 435.199219h-68.265625c-4.710938 0-8.53125-3.820313-8.53125-8.53125 0-4.714844 3.820312-8.535157 8.53125-8.535157h68.265625c4.714844 0 8.535156 3.820313 8.535156 8.535157 0 4.710937-3.820312 8.53125-8.535156 8.53125zm0 0"/><path d="m213.433594 401.066406h-128c-4.710938 0-8.53125-3.820312-8.53125-8.53125 0-4.714844 3.820312-8.535156 8.53125-8.535156h128c4.714844 0 8.535156 3.820312 8.535156 8.535156 0 4.710938-3.820312 8.53125-8.535156 8.53125zm0 0"/><path d="m213.433594 366.933594h-68.265625c-4.710938 0-8.53125-3.820313-8.53125-8.535156 0-4.710938 3.820312-8.53125 8.53125-8.53125h68.265625c4.714844 0 8.535156 3.820312 8.535156 8.53125 0 4.714843-3.820312 8.535156-8.535156 8.535156zm0 0"/><path d="m213.433594 332.800781h-128c-4.710938 0-8.53125-3.820312-8.53125-8.535156 0-4.710937 3.820312-8.53125 8.53125-8.53125h128c4.714844 0 8.535156 3.820313 8.535156 8.53125 0 4.714844-3.820312 8.535156-8.535156 8.535156zm0 0"/><path d="m213.433594 298.667969h-68.265625c-4.710938 0-8.53125-3.820313-8.53125-8.535157 0-4.710937 3.820312-8.53125 8.53125-8.53125h68.265625c4.714844 0 8.535156 3.820313 8.535156 8.53125 0 4.714844-3.820312 8.535157-8.535156 8.535157zm0 0"/><path d="m213.433594 264.535156h-128c-4.710938 0-8.53125-3.824218-8.53125-8.535156s3.820312-8.535156 8.53125-8.535156h128c4.714844 0 8.535156 3.824218 8.535156 8.535156s-3.820312 8.535156-8.535156 8.535156zm0 0"/><path d="m213.433594 230.398438h-68.265625c-4.710938 0-8.53125-3.820313-8.53125-8.53125 0-4.714844 3.820312-8.535157 8.53125-8.535157h68.265625c4.714844 0 8.535156 3.820313 8.535156 8.535157 0 4.710937-3.820312 8.53125-8.535156 8.53125zm0 0"/><path d="m213.433594 196.265625h-128c-4.710938 0-8.53125-3.820313-8.53125-8.53125 0-4.714844 3.820312-8.535156 8.53125-8.535156h128c4.714844 0 8.535156 3.820312 8.535156 8.535156 0 4.710937-3.820312 8.53125-8.535156 8.53125zm0 0"/><path d="m213.433594 162.132812h-68.265625c-4.710938 0-8.53125-3.820312-8.53125-8.53125 0-4.714843 3.820312-8.535156 8.53125-8.535156h68.265625c4.714844 0 8.535156 3.820313 8.535156 8.535156 0 4.710938-3.820312 8.53125-8.535156 8.53125zm0 0"/><path d="m213.433594 128h-128c-4.710938 0-8.53125-3.820312-8.53125-8.535156 0-4.710938 3.820312-8.53125 8.53125-8.53125h128c4.714844 0 8.535156 3.820312 8.535156 8.53125 0 4.714844-3.820312 8.535156-8.535156 8.535156zm0 0"/><path d="m213.433594 93.867188h-68.265625c-4.710938 0-8.53125-3.820313-8.53125-8.535157 0-4.710937 3.820312-8.53125 8.53125-8.53125h68.265625c4.714844 0 8.535156 3.820313 8.535156 8.53125 0 4.714844-3.820312 8.535157-8.535156 8.535157zm0 0"/><path d="m213.433594 59.734375h-128c-4.710938 0-8.53125-3.820313-8.53125-8.535156 0-4.710938 3.820312-8.53125 8.53125-8.53125h128c4.714844 0 8.535156 3.820312 8.535156 8.53125 0 4.714843-3.820312 8.535156-8.535156 8.535156zm0 0"/><path d="m273.167969 187.734375c-2.261719 0-4.433594-.898437-6.03125-2.5l-25.601563-25.601563c-1.601562-1.597656-2.5-3.769531-2.5-6.03125 0-2.265624.898438-4.433593 2.5-6.035156l25.601563-25.597656c3.347656-3.234375 8.667969-3.191406 11.960937.101562 3.292969 3.292969 3.339844 8.613282.105469 11.960938l-19.566406 19.570312 19.566406 19.566407c2.4375 2.4375 3.167969 6.109375 1.847656 9.296875-1.320312 3.1875-4.429687 5.269531-7.882812 5.269531zm0 0"/><path d="m315.835938 162.132812h-68.265626c-4.714843 0-8.535156-3.820312-8.535156-8.53125 0-4.714843 3.820313-8.535156 8.535156-8.535156h68.265626c4.710937 0 8.53125 3.820313 8.53125 8.535156 0 4.710938-3.820313 8.53125-8.53125 8.53125zm0 0"/></g></svg>