<?xml version="1.0" encoding="utf-8"?>
<!-- Generator: Adobe Illustrator 23.0.4, SVG Export Plug-In . SVG Version: 6.00 Build 0)  -->
<svg version="1.1" id="Layer_1" xmlns="http://www.w3.org/2000/svg" xmlns:xlink="http://www.w3.org/1999/xlink" x="0px" y="0px"
	 viewBox="0 0 438 438" style="enable-background:new 0 0 438 438;" xml:space="preserve">
<style type="text/css">
	.st0{fill:#FBCDD2;}
	.st1{fill:#FCE3E3;}
	.st2{fill:#25D8F7;}
	.st3{fill:#76E1F7;}
	.st4{fill:#DFF3FF;}
</style>
<path class="st0" d="M403,84.9l-8,95.6l-1.2,13.9l-2.5,29.7l-1.2,13.7l-2.5,29.9l-1.1,13.4l-2.6,30.4v0l-1.1,12.8v0l-2.6,31l-1,12
	l-3.4,41.4c-1,12.6-11.6,22.3-24.2,22.3H86.3c-12.6,0-23.2-9.7-24.2-22.3l-3.4-41.4l-1-12l-2.6-31v0L54,311.5v0l-2.6-30.4l-1.1-13.4
	l-2.5-29.9l-1.2-13.7l-2.5-29.7L43,180.5l-8-95.6c-1.1-13.4,8.8-25.1,22.1-26.2c0.7-0.1,1.4-0.1,2.1-0.1H113
	c10.3-0.1,20.1-5,26.4-13.1c34.9-44,98.9-51.3,142.9-16.4c6.1,4.8,11.5,10.3,16.4,16.4c6.3,8.2,16.1,13,26.4,13.1h53.8
	c13.4,0,24.3,10.8,24.3,24.2C403.1,83.5,403.1,84.2,403,84.9L403,84.9z"/>
<path class="st1" d="M337.9,408.7L365,84.9c1.1-13.4-8.8-25.1-22.2-26.2c-0.7-0.1-1.3-0.1-2-0.1H287c-10.3-0.1-20.1-5-26.4-13.1
	C245.5,26.3,223.9,13.4,200,8.8c-24,4.5-45.5,17.5-60.6,36.6c-6.3,8.2-16.1,13-26.4,13.1H59.2c-13.4,0-24.3,10.9-24.3,24.3
	c0,0.7,0,1.4,0.1,2l27.1,323.8c1.1,12.6,11.6,22.3,24.2,22.3h227.4C326.3,431,336.9,421.3,337.9,408.7L337.9,408.7z"/>
<circle class="st2" cx="219" cy="108.8" r="65.2"/>
<path class="st3" d="M204.5,45.3c-35.1,8-57.1,42.9-49.1,78c5.6,24.5,24.7,43.6,49.1,49.1c35.1-8,57.1-42.9,49.1-78
	C248.1,69.9,229,50.8,204.5,45.3z"/>
<path class="st4" d="M219,98.3c-5.3,0-9.8,4-10.4,9.3L186,123.7c-3.2,2.2-3.9,6.6-1.6,9.8c2.2,3.2,6.6,3.9,9.8,1.6l22.6-16.1
	c5.7,1.3,11.3-2.3,12.5-8c1.3-5.7-2.3-11.3-8-12.5C220.5,98.4,219.8,98.3,219,98.3z"/>
<g>
	<path class="st0" d="M124.2,187.4c0,3.9-3.1,7-7,7c0,0,0,0,0,0h-73L43,180.5c0.3-0.1,0.5-0.1,0.8-0.1h73.4
		C121,180.4,124.2,183.5,124.2,187.4C124.2,187.4,124.2,187.4,124.2,187.4L124.2,187.4z"/>
	<path class="st0" d="M128.6,230.8c0,3.9-3.1,7-7,7H48.3c-0.2,0-0.3,0-0.5,0l-1.2-13.7c0.5-0.2,1.1-0.2,1.6-0.2h73.4
		C125.5,223.8,128.6,227,128.6,230.8L128.6,230.8z"/>
	<path class="st0" d="M133.1,274.2c0,3.9-3.1,7-7,7c0,0,0,0,0,0H52.7c-0.4,0-0.9,0-1.3-0.2l-1.1-13.4c0.8-0.3,1.6-0.5,2.4-0.5h73.4
		C129.9,267.2,133.1,270.4,133.1,274.2z"/>
	<path class="st0" d="M142,361.1c0,3.9-3.1,7-7,7H61.6c-1,0-2.1-0.2-3-0.7l-1-12c1.2-0.8,2.6-1.3,4-1.3H135
		C138.9,354.1,142,357.2,142,361.1z"/>
	<path class="st0" d="M395,180.5l-1.2,13.9h-73c-3.9,0-7-3.1-7-7s3.1-7,7-7h73.4C394.5,180.4,394.7,180.4,395,180.5z"/>
	<path class="st0" d="M391.4,224.1l-1.2,13.7c-0.2,0-0.3,0-0.5,0h-73.4c-3.9,0-7-3.1-7-7s3.1-7,7-7h73.4
		C390.3,223.8,390.8,223.9,391.4,224.1L391.4,224.1z"/>
	<path class="st0" d="M387.7,267.7l-1.1,13.4c-0.4,0.1-0.9,0.2-1.3,0.2h-73.4c-3.9,0-7-3.1-7-7s3.1-7,7-7h73.4
		C386.1,267.2,386.9,267.4,387.7,267.7z"/>
	<path class="st0" d="M384,311.5L384,311.5l-1.1,12.8v0c-0.7,0.2-1.4,0.4-2.1,0.4h-73.4c-3.9,0-7-3.1-7-7s3.1-7,7-7h73.4
		C382,310.7,383.1,311,384,311.5z"/>
	<path class="st0" d="M380.4,355.4l-1,12c-0.9,0.5-2,0.7-3,0.7H303c-3.9,0-7-3.1-7-7s3.1-7,7-7h73.4
		C377.8,354.1,379.2,354.5,380.4,355.4z"/>
</g>
<path d="M401.8,61.7c-5.9-6.4-14.3-10.1-23-10.1h-53.8c-8.2-0.1-15.9-4-20.9-10.5c-37.4-47-105.8-54.8-152.8-17.4
	c-6.4,5.1-12.3,11-17.4,17.4c-5,6.5-12.7,10.4-20.9,10.5H59.2c-17.3,0-31.3,14-31.3,31.3c0,0.9,0,1.7,0.1,2.6l2.5,30.1
	c0.3,3.9,3.7,6.7,7.6,6.4c3.9-0.3,6.7-3.7,6.4-7.6L42,84.3c-0.8-9.5,6.3-17.9,15.8-18.7c0.5,0,1-0.1,1.4-0.1H113
	c12.5-0.1,24.2-5.9,31.9-15.8C177.4,8.8,237,2,278,34.6c5.6,4.5,10.7,9.6,15.2,15.2c7.6,9.9,19.4,15.7,31.9,15.8h53.8
	c9.6,0,17.3,7.7,17.3,17.3c0,0.5,0,1-0.1,1.4l-8,96.1h-67.2c-3.9,0-7,3.1-7,7s3.1,7,7,7h66l-6.1,72.8h-68.8c-3.9,0-7,3.1-7,7
	s3.1,7,7,7h67.6l-2.5,29.4h-69.6c-3.9,0-7,3.1-7,7s3.1,7,7,7l0,0h68.5l-2.5,29.4H303c-3.9,0-7,3.1-7,7s3.1,7,7,7h69.3l-3.4,40.1
	c-0.8,8.9-8.3,15.8-17.2,15.9H86.3c-9,0-16.4-6.9-17.2-15.9l-3.4-40.1H135c3.9,0,7-3.1,7-7s-3.1-7-7-7H64.5l-2.5-29.4h27.3
	c3.9,0,7-3.1,7-7s-3.1-7-7-7H60.9l-2.5-29.4h67.6c3.9,0,7-3.1,7-7s-3.1-7-7-7H57.3l-2.5-29.4h66.8c3.9,0,7-3.1,7-7s-3.1-7-7-7h-68
	l-2.5-29.4h66c3.9,0,7-3.1,7-7s-3.1-7-7-7H50l-3.3-39.3c-0.3-3.9-3.7-6.7-7.6-6.4s-6.7,3.7-6.4,7.6l22.3,267
	c1.4,16.2,15,28.6,31.2,28.7h265.4c16.2-0.1,29.8-12.5,31.2-28.7L410,85.5C410.7,76.7,407.8,68.1,401.8,61.7L401.8,61.7z"/>
<path d="M246.2,49.1c1.2-3.7-0.8-7.6-4.4-8.8c-37.8-12.5-78.7,8-91.2,45.8s8,78.7,45.8,91.2s78.7-8,91.2-45.8
	c5.6-16.8,4.8-35.2-2.3-51.4c-1.5-3.5-5.7-5.2-9.2-3.6c-3.5,1.5-5.2,5.7-3.6,9.2c12.8,29.5-0.8,63.7-30.2,76.5
	c-29.5,12.8-63.7-0.8-76.5-30.2s0.8-63.7,30.2-76.5c13.1-5.7,27.8-6.3,41.4-1.8C241,54.8,245,52.8,246.2,49.1
	C246.2,49.1,246.2,49.1,246.2,49.1z"/>
<path d="M264.2,68.8c3.9,0,7-3.1,7-7c0-1.9-0.8-3.7-2.1-5c-0.7-0.7-1.4-1.3-2.2-2c-2.8-2.6-7.3-2.5-9.9,0.4
	c-2.6,2.8-2.5,7.3,0.4,9.9c0.1,0.1,0.2,0.2,0.3,0.2c0.6,0.5,1.2,1,1.7,1.6C260.7,68.1,262.4,68.8,264.2,68.8L264.2,68.8z"/>
<path d="M208.6,107.6L186,123.7c-3.2,2.2-3.9,6.6-1.6,9.8c2.2,3.2,6.6,3.9,9.8,1.6l22.6-16.1c5.7,1.3,11.3-2.2,12.6-7.9
	c1.3-5.7-2.2-11.3-7.9-12.6c-5.7-1.3-11.3,2.2-12.6,7.9C208.7,106.9,208.7,107.2,208.6,107.6L208.6,107.6z"/>
<path d="M113.7,310.7c-3.9,0-7,3.1-7,7s3.1,7,7,7h16.9c3.9,0,7-3.1,7-7s-3.1-7-7-7H113.7z"/>
<path d="M365,237.8c3.9,0,7-3.1,7-7s-3.1-7-7-7h-48.6c-3.9,0-7,3.1-7,7s3.1,7,7,7H365z"/>
</svg>
